<svg width="51" height="41" viewBox="0 0 51 41" fill="none" xmlns="http://www.w3.org/2000/svg">
<path d="M10.9549 0.5C8.0898 0.5 5.96968 3.0077 6.06461 5.72723C6.15582 8.33987 6.03735 11.7239 5.1855 14.4835C4.33109 17.2511 2.88591 19.0042 0.525513 19.2294V21.7706C2.88591 21.9958 4.33109 23.7489 5.1855 26.5167C6.03735 29.2763 6.15582 32.6599 6.06461 35.2728C5.96968 37.9919 8.0898 40.5 10.9553 40.5H40.3127C43.178 40.5 45.2975 37.9923 45.2026 35.2728C45.1115 32.6601 45.2298 29.2763 46.0817 26.5167C46.9367 23.7491 48.3779 21.9956 50.7383 21.7706V19.2294C48.3779 19.0042 46.9367 17.2511 46.0819 14.4835C45.2298 11.7243 45.1115 8.34006 45.2026 5.72723C45.2975 3.00809 43.178 0.5 40.3127 0.5H10.9545H10.9549ZM34.5682 25.1225C34.5682 28.8673 31.7751 31.1383 27.1399 31.1383H19.249C19.0233 31.1382 18.8069 31.0485 18.6473 30.8889C18.4878 30.7293 18.3981 30.5129 18.3981 30.2872V10.7128C18.3981 10.601 18.4201 10.4903 18.4629 10.3871C18.5056 10.2838 18.5683 10.1899 18.6473 10.1109C18.7264 10.0318 18.8202 9.96914 18.9235 9.92635C19.0267 9.88357 19.1374 9.86155 19.2492 9.86155H27.0948C30.9598 9.86155 33.4963 11.9554 33.4963 15.1698C33.4963 17.426 31.7899 19.4459 29.616 19.7996V19.9175C32.5756 20.2421 34.5682 22.2916 34.5682 25.1225ZM26.2792 12.5595H21.7802V18.9146H25.5697C28.499 18.9146 30.1144 17.735 30.1144 15.6264C30.1144 13.6507 28.7251 12.5595 26.2792 12.5595ZM21.7802 21.4362V28.4395H26.4449C29.4946 28.4395 31.1104 27.2158 31.1104 24.9158C31.1104 22.6154 29.4497 21.4358 26.2488 21.4358H21.7802V21.4362Z" fill="#7E13F8"/>
</svg>
