<svg width="30" height="41" viewBox="0 0 30 41" fill="none" xmlns="http://www.w3.org/2000/svg">
<path d="M0.427917 32.7871L0.670785 32.4485L12.1285 10.7132L12.1527 10.4832L7.10251 0.99707C7.01005 0.8236 6.86539 0.683594 6.68899 0.596857C6.5126 0.510121 6.31339 0.481046 6.11956 0.513746C5.92573 0.546446 5.74708 0.639266 5.6089 0.779073C5.47072 0.91888 5.38 1.0986 5.34957 1.2928L0.427917 32.7871Z" fill="#FFC24A"/>
<path d="M0.570801 32.5299L0.753666 32.1728L12.0928 10.6632L7.05539 1.13993C6.97231 0.974307 6.83782 0.840065 6.67204 0.757308C6.50627 0.674551 6.31814 0.647736 6.13585 0.680881C5.95355 0.714025 5.7869 0.805345 5.66087 0.941158C5.53483 1.07697 5.4562 1.24997 5.43674 1.43422L0.570801 32.5299Z" fill="#FFA712"/>
<path d="M15.8343 17.6578L19.5945 13.8005L15.8329 6.62732C15.7501 6.47294 15.627 6.3439 15.4767 6.25395C15.3264 6.16399 15.1545 6.11649 14.9793 6.11649C14.8041 6.11649 14.6322 6.16399 14.4819 6.25395C14.3316 6.3439 14.2085 6.47294 14.1257 6.62732L12.1156 10.4589V10.7861L15.8343 17.6578Z" fill="#F4BD62"/>
<path d="M15.7672 17.5007L19.423 13.7577L15.7672 6.7859C15.7073 6.63499 15.6051 6.50461 15.4728 6.41048C15.3406 6.31636 15.1839 6.2625 15.0217 6.2554C14.8595 6.2483 14.6988 6.28827 14.5588 6.37048C14.4188 6.4527 14.3056 6.57365 14.2328 6.71876L12.2127 10.6175L12.1527 10.8161L15.7672 17.5007Z" fill="#FFA50E"/>
<path d="M0.430786 32.7885L0.540791 32.6771L0.939381 32.5157L15.5972 17.9121L15.7829 17.4064L12.127 10.4375L0.430786 32.7885Z" fill="#F6820C"/>
<path d="M16.3029 40.1531L29.5721 32.7542L25.7805 9.42316C25.7533 9.25869 25.6814 9.10489 25.5725 8.97864C25.4636 8.85239 25.3221 8.75858 25.1634 8.70751C25.0047 8.65643 24.835 8.65007 24.673 8.68912C24.5109 8.72816 24.3627 8.81111 24.2447 8.92885L0.427917 32.7871L13.6185 40.1517C14.0286 40.3805 14.4904 40.5007 14.96 40.5007C15.4296 40.5007 15.8914 40.3805 16.3015 40.1517" fill="#FDE068"/>
<path d="M29.4507 32.6928L25.6905 9.53747C25.6839 9.38015 25.6307 9.22835 25.5378 9.10126C25.4448 8.97417 25.3163 8.87751 25.1684 8.82352C25.0205 8.76952 24.8598 8.76062 24.7069 8.79794C24.5539 8.83526 24.4155 8.91712 24.309 9.03316L0.570801 32.7428L13.6157 40.0289C14.0225 40.2558 14.4806 40.375 14.9465 40.375C15.4123 40.375 15.8704 40.2558 16.2772 40.0289L29.4507 32.6928Z" fill="#FCCA3F"/>
<path d="M16.3029 39.9303C15.8929 40.1591 15.4311 40.2792 14.9614 40.2792C14.4918 40.2792 14.03 40.1591 13.62 39.9303L0.536494 32.6757L0.427917 32.7871L13.6185 40.1517C14.0286 40.3806 14.4904 40.5007 14.96 40.5007C15.4296 40.5007 15.8914 40.3806 16.3015 40.1517L29.5721 32.7542L29.5393 32.5542L16.3029 39.9303Z" fill="#EEAB37"/>
</svg>
