<svg width="36" height="41" viewBox="0 0 36 41" fill="none" xmlns="http://www.w3.org/2000/svg">
<path d="M3.57426 36.5014L0.364258 0.5H35.6357L32.4214 36.4957L17.9785 40.5L3.57426 36.5014Z" fill="#E44F26"/>
<path d="M17.9999 37.44L29.6713 34.2043L32.417 3.44429H17.9999V37.44Z" fill="#F1662A"/>
<path d="M17.9999 16.7957H12.157L11.7542 12.2743H17.9999V7.85857H6.92847L7.03418 9.04428L8.11847 21.2114H17.9999V16.7957ZM17.9999 28.2629L17.9799 28.2686L13.0628 26.9414L12.7485 23.42H8.31561L8.93418 30.3514L17.9799 32.8629L17.9999 32.8571V28.2629Z" fill="#EBEBEB"/>
<path d="M17.9843 16.7957V21.2114H23.4214L22.91 26.9386L17.9843 28.2671V32.8614L27.0371 30.3514L27.1028 29.6057L28.14 17.9814L28.2485 16.7957H17.9843ZM17.9843 7.85857V12.2743H28.65L28.7385 11.2829L28.94 9.04428L29.0457 7.85857H17.9843Z" fill="white"/>
</svg>
