<svg width="28" height="41" viewBox="0 0 28 41" fill="none" xmlns="http://www.w3.org/2000/svg">
<g clip-path="url(#clip0_57_300)">
<path d="M27.0989 22.8756H0.860779V21.3959C0.860779 20.4016 1.66673 19.5957 2.66088 19.5957H25.2987C26.2929 19.5957 27.0989 20.4016 27.0989 21.3959V22.8756Z" fill="#DFDEDF"/>
<path d="M25.271 40.0356H2.68848C1.67898 40.0356 0.860596 39.2172 0.860596 38.2077V22.8756H27.0987V38.2076C27.0987 39.2171 26.2804 40.0355 25.2708 40.0355" fill="white"/>
<path d="M26.773 22.5781V21.2511C26.773 20.4677 26.138 19.8326 25.3547 19.8326H2.64531C1.86191 19.8326 1.22693 20.4676 1.22693 21.2511V22.5781H26.773ZM26.773 38.3973V23.1732H1.22693V38.3972C1.22693 39.1807 1.86191 39.8157 2.64531 39.8157H25.3547C26.138 39.8157 26.773 39.1807 26.773 38.3973ZM2.77847 19.2376L2.86682 18.2731L2.49168 19.2454C2.54254 19.2415 2.5934 19.2376 2.64531 19.2376H2.77847ZM25.0658 17.6115L25.1967 19.2376H25.3547C25.4391 19.2376 25.5219 19.2445 25.6036 19.2547L25.0658 17.6115ZM26.867 19.9263C27.1779 20.2808 27.3681 20.7437 27.3681 21.2511V38.3973C27.3681 39.5075 26.4648 40.4108 25.3547 40.4108H2.64531C1.53513 40.4108 0.631836 39.5076 0.631836 38.3972V21.2512C0.631836 20.7132 0.845204 20.2249 1.19027 19.8632L3.19758 14.6604L4.07288 5.09864L5.06045 5.18898L4.27173 13.8043L4.54954 13.9115L4.17251 14.8888L3.77439 19.2376H24.2019L23.0683 5.16517L24.0567 5.08548L24.7253 13.3851L24.7257 13.385L26.867 19.9263ZM2.84134 20.8026C2.90091 20.8016 2.96007 20.8126 3.01537 20.8348C3.07067 20.8569 3.12101 20.8899 3.16346 20.9317C3.20591 20.9735 3.23962 21.0233 3.26263 21.0783C3.28564 21.1332 3.29748 21.1922 3.29748 21.2518C3.29748 21.3114 3.28564 21.3704 3.26263 21.4253C3.23962 21.4803 3.20591 21.5301 3.16346 21.5719C3.12101 21.6137 3.07067 21.6467 3.01537 21.6688C2.96007 21.691 2.90091 21.7019 2.84134 21.701C2.72338 21.6992 2.61086 21.6511 2.52808 21.5671C2.4453 21.483 2.39889 21.3698 2.39889 21.2518C2.39889 21.1338 2.4453 21.0206 2.52808 20.9365C2.61086 20.8525 2.72338 20.8044 2.84134 20.8026ZM4.37753 20.8026C4.4371 20.8016 4.49626 20.8126 4.55156 20.8348C4.60686 20.8569 4.6572 20.8899 4.69965 20.9317C4.74209 20.9735 4.7758 21.0233 4.79881 21.0783C4.82182 21.1332 4.83367 21.1922 4.83367 21.2518C4.83367 21.3114 4.82182 21.3704 4.79881 21.4253C4.7758 21.4803 4.74209 21.5301 4.69965 21.5719C4.6572 21.6137 4.60686 21.6467 4.55156 21.6688C4.49626 21.691 4.4371 21.7019 4.37753 21.701C4.25957 21.6992 4.14705 21.6511 4.06427 21.5671C3.98148 21.483 3.93508 21.3698 3.93508 21.2518C3.93508 21.1338 3.98148 21.0206 4.06427 20.9365C4.14705 20.8525 4.25957 20.8044 4.37753 20.8026ZM5.86515 20.8026C5.92472 20.8016 5.98388 20.8126 6.03918 20.8348C6.09448 20.8569 6.14482 20.8899 6.18727 20.9317C6.22972 20.9735 6.26343 21.0233 6.28644 21.0783C6.30945 21.1332 6.3213 21.1922 6.3213 21.2518C6.3213 21.3114 6.30945 21.3704 6.28644 21.4253C6.26343 21.4803 6.22972 21.5301 6.18727 21.5719C6.14482 21.6137 6.09448 21.6467 6.03918 21.6688C5.98388 21.691 5.92472 21.7019 5.86515 21.701C5.74719 21.6992 5.63467 21.6511 5.55189 21.5671C5.46911 21.483 5.42271 21.3698 5.42271 21.2518C5.42271 21.1338 5.46911 21.0206 5.55189 20.9365C5.63467 20.8525 5.74719 20.8044 5.86515 20.8026Z" fill="black"/>
<path d="M4.39395 30.552C4.47114 30.4627 4.51176 30.3453 4.51176 30.1996C4.51176 30.0538 4.47103 29.9411 4.39395 29.8519C4.3127 29.7626 4.19886 29.7203 4.05265 29.7203H3.33756V30.6835H4.05265C4.19886 30.6835 4.3127 30.6412 4.39395 30.552ZM4.05265 29.1424C4.36137 29.1424 4.60513 29.2364 4.7879 29.429C4.97087 29.6216 5.06027 29.8799 5.06027 30.1997C5.06027 30.5237 4.97087 30.7775 4.79218 30.9701C4.60931 31.1629 4.36555 31.2615 4.05265 31.2615H3.33756V32.558H2.78497V29.1424H4.05265ZM7.03375 31.2371V30.2408H7.62884V32.4904H7.03375V32.2876C6.85338 32.4678 6.61912 32.558 6.32597 32.558C6.05547 32.558 5.83907 32.4678 5.67228 32.2921C5.5055 32.1163 5.42435 31.8908 5.42435 31.6113V30.2408H6.01944V31.4851C6.01944 31.6428 6.05996 31.7736 6.1456 31.8684C6.22675 31.963 6.33495 32.0125 6.47469 32.0125C6.84889 32.0125 7.03375 31.7556 7.03375 31.2371ZM9.9503 31.8548C10.0675 31.733 10.1261 31.5707 10.1261 31.3679C10.1261 31.1651 10.0676 30.9982 9.9503 30.8765C9.82852 30.7547 9.6798 30.6916 9.49495 30.6916C9.32816 30.6916 9.17954 30.7547 9.04868 30.881C8.91792 31.0073 8.85484 31.1695 8.85484 31.3679C8.85484 31.5662 8.91792 31.7286 9.04868 31.8502C9.17944 31.9766 9.32816 32.0396 9.49495 32.0396C9.6798 32.0396 9.82852 31.9766 9.9503 31.8548ZM9.59865 30.1732C9.89171 30.1732 10.1532 30.286 10.3741 30.5114C10.595 30.7411 10.7031 31.0252 10.7031 31.3678C10.7031 31.7103 10.595 31.9944 10.3741 32.2199C10.1531 32.4454 9.8962 32.558 9.59865 32.558C9.3056 32.558 9.05766 32.4768 8.85484 32.3146V33.5636H8.25975V30.2408H8.85484V30.4211C9.05328 30.2544 9.30111 30.1732 9.59865 30.1732ZM12.8444 31.8547C12.9616 31.733 13.0202 31.5706 13.0202 31.3679C13.0202 31.1651 12.9616 30.9982 12.8444 30.8765C12.7226 30.7547 12.5739 30.6916 12.389 30.6916C12.2223 30.6916 12.0735 30.7547 11.9428 30.881C11.812 31.0073 11.7488 31.1695 11.7488 31.3679C11.7488 31.5662 11.812 31.7286 11.9428 31.8502C12.0735 31.9766 12.2223 32.0396 12.389 32.0396C12.5739 32.0396 12.7226 31.9764 12.8444 31.8547ZM12.4927 30.1732C12.7857 30.1732 13.0472 30.286 13.2682 30.5114C13.489 30.7411 13.5972 31.0252 13.5972 31.3678C13.5972 31.7103 13.489 31.9944 13.2682 32.2199C13.0472 32.4454 12.7903 32.558 12.4927 32.558C12.1997 32.558 11.9517 32.4768 11.7488 32.3146V33.5636H11.1539V30.2408H11.7488V30.4211C11.9473 30.2544 12.1952 30.1732 12.4927 30.1732ZM14.476 31.1064H15.5625C15.5265 30.9666 15.4588 30.863 15.3642 30.7951C15.2695 30.7277 15.1569 30.6916 15.0305 30.6916C14.9079 30.6915 14.7882 30.7293 14.688 30.7998C14.5798 30.8719 14.5076 30.9756 14.476 31.1064ZM15.0306 30.1732C15.3371 30.1732 15.6031 30.2814 15.824 30.4933C16.0449 30.7097 16.1576 30.9846 16.1712 31.3228V31.5257H14.4581C14.4896 31.6834 14.5573 31.8096 14.661 31.9044C14.7646 31.999 14.8818 32.0485 15.0215 32.0485C15.2786 32.0485 15.4634 31.9493 15.5806 31.7511L16.1126 31.8638C16.0179 32.0937 15.8736 32.2651 15.6844 32.3823C15.4949 32.4995 15.2741 32.558 15.0215 32.558C14.6969 32.558 14.422 32.4454 14.2011 32.2245C13.9802 32.0036 13.8674 31.715 13.8674 31.3679C13.8674 31.0208 13.9802 30.7323 14.2055 30.5068C14.4264 30.286 14.7016 30.1732 15.0306 30.1732ZM17.812 32.0036C17.9247 32.0036 18.051 31.9675 18.1862 31.8954L18.3575 32.3913C18.1501 32.504 17.9563 32.5581 17.7714 32.5581C17.4964 32.5581 17.28 32.4814 17.1222 32.3325C16.9645 32.184 16.8878 31.963 16.8878 31.6609V30.7277H16.4053V30.2408H16.8878V29.5602H17.4829V30.2408H18.2178V30.7277H17.4829V31.6158C17.4829 31.8727 17.5911 32.0036 17.8119 32.0036H17.812ZM19.0605 31.1064H20.147C20.1109 30.9666 20.0432 30.863 19.9486 30.7951C19.8539 30.7277 19.7413 30.6916 19.6149 30.6916C19.4923 30.6915 19.3727 30.7293 19.2724 30.7998C19.1642 30.8719 19.092 30.9756 19.0605 31.1064ZM19.6151 30.1732C19.9216 30.1732 20.1876 30.2814 20.4085 30.4933C20.6294 30.7097 20.742 30.9846 20.7556 31.3228V31.5257H19.0425C19.0741 31.6834 19.1417 31.8096 19.2454 31.9044C19.349 31.999 19.4662 32.0485 19.606 32.0485C19.863 32.0485 20.0478 31.9493 20.165 31.7511L20.6969 31.8638C20.6023 32.0937 20.4581 32.2651 20.2687 32.3823C20.0794 32.4995 19.8585 32.558 19.606 32.558C19.2814 32.558 19.0065 32.4454 18.7855 32.2245C18.5646 32.0036 18.4518 31.715 18.4518 31.3679C18.4518 31.0208 18.5646 30.7323 18.79 30.5068C19.0109 30.286 19.2861 30.1732 19.6151 30.1732ZM21.7336 31.1064H22.8201C22.784 30.9666 22.7164 30.863 22.6218 30.7951C22.5271 30.7277 22.4144 30.6916 22.2881 30.6916C22.1654 30.6915 22.0458 30.7293 21.9455 30.7998C21.8373 30.8719 21.7651 30.9756 21.7336 31.1064ZM22.2882 30.1732C22.5947 30.1732 22.8607 30.2814 23.0816 30.4933C23.3025 30.7097 23.4153 30.9846 23.4288 31.3228V31.5257H21.7156C21.7472 31.6834 21.8148 31.8096 21.9187 31.9044C22.0223 31.999 22.1394 32.0485 22.2792 32.0485C22.5361 32.0485 22.721 31.9493 22.8381 31.7511L23.3702 31.8638C23.2755 32.0937 23.1313 32.2651 22.9419 32.3823C22.7525 32.4995 22.5316 32.558 22.2792 32.558C21.9546 32.558 21.6795 32.4454 21.4587 32.2245C21.2378 32.0036 21.1249 31.715 21.1249 31.3679C21.1249 31.0208 21.2377 30.7323 21.4631 30.5068C21.684 30.286 21.9592 30.1732 22.2882 30.1732ZM25.2814 30.2092C25.3491 30.2092 25.4032 30.2137 25.4394 30.2272L25.4077 30.7998H25.2771C24.7406 30.7998 24.4745 31.1199 24.4745 31.7646V32.4904H23.8795V30.2408H24.4745V30.651C24.6774 30.358 24.9479 30.2092 25.2815 30.2092H25.2814Z" fill="black"/>
<path d="M22.6784 14.3525L25.8889 12.8026V11.2527L18.4714 7.70992L25.8889 3.8905V2.39598L22.7891 0.956711L14.0062 5.32966L5.07564 0.956711L2.1972 2.50668V3.83514L9.17183 7.65457L2.1972 11.1973V12.8026L5.18634 14.3525L14.0431 9.81342L22.6784 14.3525Z" fill="#00D8A2"/>
<path d="M23.0809 13.7204V13.0528L25.4976 11.8005V12.5503L23.0809 13.7204ZM2.39163 11.7829L4.72688 13.1235V13.6572L2.39163 12.4758V11.7829ZM14.3533 8.9637L22.3867 12.9329V13.731L14.3533 9.61561V8.9637ZM5.42109 13.049L13.6592 8.96443V9.6154L5.42109 13.7833V13.049ZM11.2542 6.37488L2.91769 2.35002L5.07686 1.25268L14.0063 5.88172L22.7861 1.25467L25.0215 2.39963L16.892 6.49091C16.5669 6.65446 16.5674 7.11858 16.8927 7.28151L24.9385 11.3083L22.853 12.389L14.0063 7.85602L5.00302 12.4815L2.94673 11.301L11.259 7.16924C11.5882 7.00558 11.5854 6.53477 11.2542 6.37488ZM2.49545 3.71357V2.98104L10.2705 6.8602L9.48448 7.17425L2.49545 3.71357ZM18.4384 7.21728C18.4278 7.2108 17.6938 6.86448 17.6938 6.86448L25.4975 2.93707V3.67284L18.4386 7.21738L18.4384 7.21728ZM19.2196 7.60192L26.0785 4.15796C26.1126 4.14084 26.1412 4.11458 26.1613 4.08212C26.1813 4.04966 26.1919 4.01228 26.1918 3.97414V2.3449C26.1918 2.30708 26.1814 2.26999 26.1617 2.23771C26.142 2.20543 26.1137 2.17921 26.0801 2.16193L22.8806 0.523179C22.8517 0.508402 22.8197 0.500671 22.7873 0.500616C22.7548 0.500562 22.7228 0.508186 22.6939 0.522865L14.0983 4.88464C14.0697 4.89918 14.0381 4.90681 14.006 4.90692C13.9739 4.90703 13.9422 4.89961 13.9135 4.88527L5.16657 0.521612C5.13784 0.507305 5.10615 0.49992 5.07405 0.500047C5.04196 0.500174 5.01033 0.50781 4.98171 0.522343L1.80991 2.13425C1.77605 2.15143 1.74761 2.17765 1.72774 2.21C1.70787 2.24235 1.69734 2.27957 1.69733 2.31754V3.97341C1.69733 4.05164 1.74171 4.12307 1.8119 4.15775L8.69973 7.56078L1.84375 10.965C1.81005 10.9817 1.78159 11.0074 1.76148 11.0392C1.74137 11.071 1.73038 11.1077 1.7297 11.1453L1.69973 12.7735C1.69902 12.8122 1.70923 12.8503 1.72918 12.8834C1.74913 12.9165 1.77802 12.9433 1.81252 12.9608L5.1061 14.6272C5.13479 14.6417 5.16647 14.6492 5.19861 14.6493C5.23074 14.6493 5.26244 14.6418 5.29116 14.6274L13.9134 10.2979C13.9422 10.2834 13.9739 10.276 14.0061 10.276C14.0383 10.2761 14.0701 10.2837 14.0988 10.2983L22.6137 14.6277C22.6419 14.642 22.6731 14.6497 22.7047 14.65C22.7364 14.6503 22.7677 14.6433 22.7962 14.6295L26.0758 13.0417C26.1106 13.0249 26.1399 12.9986 26.1604 12.9659C26.1809 12.9332 26.1918 12.8954 26.1918 12.8568V11.1554C26.1918 11.117 26.1811 11.0794 26.1608 11.0468C26.1405 11.0142 26.1114 10.9879 26.077 10.9709L19.2195 7.60203L19.2196 7.60192Z" fill="black"/>
</g>
<defs>
<clipPath id="clip0_57_300">
<rect width="26.74" height="40" fill="white" transform="translate(0.630005 0.5)"/>
</clipPath>
</defs>
</svg>
