<svg width="40" height="41" viewBox="0 0 40 41" fill="none" xmlns="http://www.w3.org/2000/svg">
<g clip-path="url(#clip0_57_313)">
<path d="M35.8802 0.500451C35.9282 0.497374 35.976 0.507805 36.0182 0.530558C36.0605 0.553311 36.0956 0.587472 36.1194 0.629154C36.1432 0.670837 36.1548 0.718367 36.153 0.766338C36.1511 0.814309 36.1358 0.860793 36.1088 0.900504L26.2234 14.3286C26.1876 14.369 26.1436 14.4013 26.0943 14.4235C26.0451 14.4457 25.9917 14.4571 25.9377 14.4571C25.8837 14.4571 25.8303 14.4457 25.7811 14.4235C25.7318 14.4013 25.6878 14.369 25.652 14.3286L22.1663 10.443C22.1243 10.3994 22.073 10.3658 22.0163 10.3446C21.9595 10.3235 21.8987 10.3154 21.8384 10.3209C21.778 10.3264 21.7197 10.3453 21.6677 10.3764C21.6157 10.4074 21.5713 10.4498 21.5379 10.5003L19.4235 13.1858C19.3907 13.26 19.3787 13.3418 19.3888 13.4223C19.3989 13.5029 19.4307 13.5791 19.4808 13.643L25.7662 20.157C25.802 20.1974 25.846 20.2298 25.8953 20.252C25.9446 20.2742 25.998 20.2856 26.052 20.2856C26.106 20.2856 26.1594 20.2742 26.2087 20.252C26.2579 20.2298 26.3019 20.1974 26.3377 20.157L38.68 6.27191C38.7156 6.23357 38.7618 6.20668 38.8128 6.19466C38.8637 6.18264 38.9171 6.18604 38.9661 6.20442C39.0151 6.2228 39.0575 6.25533 39.088 6.29788C39.1184 6.34043 39.1356 6.39107 39.1372 6.44338V40.2137C39.1395 40.2519 39.1337 40.2901 39.1202 40.3258C39.1066 40.3615 39.0857 40.394 39.0586 40.421C39.0316 40.448 38.9991 40.4689 38.9634 40.4825C38.9277 40.496 38.8895 40.5018 38.8513 40.4994H1.25284C1.2147 40.5018 1.1765 40.496 1.14077 40.4825C1.10503 40.4689 1.07258 40.448 1.04555 40.421C1.01853 40.394 0.997551 40.3615 0.98401 40.3258C0.970468 40.2901 0.964672 40.2519 0.967004 40.2137V0.786288C0.964649 0.748139 0.97043 0.709924 0.983962 0.674178C0.997493 0.638432 1.01847 0.605969 1.04549 0.578942C1.07252 0.551915 1.10498 0.530941 1.14073 0.517409C1.17648 0.503877 1.21469 0.498097 1.25284 0.500451H35.8802ZM26.1663 23.2999C25.3244 23.285 24.4883 23.4409 23.7083 23.758C22.9283 24.0751 22.2207 24.5469 21.628 25.1449C21.0353 25.7429 20.5698 26.4548 20.2597 27.2376C19.9496 28.0203 19.8012 28.8578 19.8236 29.6995C19.8236 33.6423 22.6806 36.1565 26.3947 36.1565C28.1141 36.1994 29.8002 35.6775 31.1947 34.6708C31.2573 34.614 31.2975 34.5367 31.3079 34.4528C31.3184 34.369 31.2985 34.2841 31.2518 34.2137L30.2233 32.6709C30.1674 32.6069 30.0899 32.5656 30.0056 32.5551C29.9213 32.5446 29.836 32.5655 29.7661 32.6138C28.8722 33.2243 27.8201 33.5618 26.7378 33.5852C24.7377 33.5852 23.4806 32.3281 23.2521 30.8424C23.2542 30.8128 23.2668 30.7849 23.2878 30.7639C23.3088 30.7429 23.3367 30.7302 23.3664 30.7282H31.9947C32.0836 30.7221 32.1674 30.6841 32.2304 30.621C32.2934 30.558 32.3315 30.4742 32.3375 30.3852V30.0423C32.3375 26.0425 29.8233 23.2997 26.1663 23.2997V23.2999ZM17.6523 21.1284C15.9167 19.7097 13.7206 18.9777 11.4809 19.0713C7.59538 19.0713 5.19551 21.357 5.19551 24.0998C5.19551 30.3281 14.6809 28.3282 14.6809 31.2424C14.6809 32.1566 13.7666 33.0709 11.8239 33.0709C9.97873 33.0861 8.19855 32.3904 6.85268 31.1281C6.81296 31.0909 6.76576 31.0627 6.71425 31.0453C6.66273 31.0278 6.60808 31.0216 6.55396 31.027C6.49985 31.0324 6.44751 31.0493 6.40046 31.0766C6.35341 31.1039 6.31273 31.1409 6.28115 31.1852L4.79561 33.2423C4.74896 33.3127 4.72908 33.3976 4.73958 33.4814C4.75009 33.5653 4.79027 33.6426 4.85286 33.6994C6.39567 35.1279 8.5671 36.0994 11.5955 36.0994C16.0524 36.0994 18.2238 33.8136 18.338 30.8424C18.338 24.6712 8.85264 26.4426 8.85264 23.8141C8.85264 22.8427 9.70985 22.1569 11.1954 22.1569C12.8331 22.1345 14.4282 22.6796 15.7096 23.6998C15.7469 23.7303 15.7899 23.7531 15.8361 23.7668C15.8823 23.7805 15.9308 23.7848 15.9787 23.7794C16.0267 23.7741 16.073 23.7593 16.1151 23.7358C16.1572 23.7123 16.1942 23.6806 16.2239 23.6426L17.7096 21.6427C17.7401 21.6054 17.7629 21.5624 17.7766 21.5162C17.7903 21.4699 17.7946 21.4214 17.7893 21.3735C17.7839 21.3256 17.7691 21.2793 17.7456 21.2372C17.7221 21.1951 17.6903 21.1581 17.6523 21.1284ZM26.2234 25.8139C27.7775 25.727 29.1193 26.8915 29.2519 28.4425C29.2499 28.4722 29.2372 28.5 29.2162 28.521C29.1952 28.542 29.1673 28.5547 29.1377 28.5567H23.3091C23.2795 28.5547 23.2516 28.542 23.2306 28.521C23.2096 28.5 23.1969 28.4722 23.1949 28.4425C23.386 26.9219 24.6912 25.7892 26.2234 25.8139Z" fill="#2CB134"/>
</g>
<defs>
<clipPath id="clip0_57_313">
<rect width="40" height="41" fill="white"/>
</clipPath>
</defs>
</svg>
