<svg width="36" height="41" viewBox="0 0 36 41" fill="none" xmlns="http://www.w3.org/2000/svg">
<path d="M17.9632 0.00662231L35.6387 10.005V30.0082L17.9632 40.0066L0.28772 30.0082V10.005L17.9632 0.00662231Z" fill="white"/>
<path d="M32.4837 29.3146L18.5502 37.2051V31.0688L27.2345 26.2864L32.4837 29.3146ZM33.4375 28.4542V11.966L28.3417 14.9073V25.5126L33.4375 28.4542ZM3.38921 29.3145L17.3229 37.1986V31.0621L8.63855 26.2864L3.38921 29.3146V29.3145ZM2.43542 28.4542V11.966L7.53135 14.9073V25.5126L2.43542 28.4542ZM3.02921 10.8988L17.3229 2.81467V8.75114L8.16504 13.7869L8.09158 13.8269L3.02921 10.8988ZM32.8372 10.8988L18.5502 2.81453V8.751L27.7014 13.7933L27.7747 13.8334L32.8372 10.8986V10.8988Z" fill="#8ED6FB"/>
<path d="M17.323 29.6681L8.75867 24.9524V15.6211L17.323 20.5636V29.6681ZM18.5503 29.6681L27.1146 24.9591V15.6211L18.5503 20.5636V29.6681ZM9.33229 14.5405L17.9367 9.81152L26.5341 14.5405L17.9367 19.5031L9.33229 14.5405Z" fill="#1C78C0"/>
</svg>
