<svg width="36" height="41" viewBox="0 0 36 41" fill="none" xmlns="http://www.w3.org/2000/svg">
<path d="M3.20857 36.5014L0 0.5H35.2686L32.0557 36.4957L17.6129 40.5L3.20857 36.5014Z" fill="#1572B6"/>
<path d="M17.6343 37.44L29.3057 34.2043L32.0514 3.44429H17.6343V37.44Z" fill="#33A9DC"/>
<path d="M17.6343 16.4871H23.4771L23.88 11.9657H17.6343V7.55H28.7057L28.6 8.73429L27.5157 20.9029H17.6343V16.4871Z" fill="white"/>
<path d="M17.6614 27.9543L17.6414 27.96L12.7243 26.6314L12.41 23.11H7.97711L8.59568 30.0429L17.64 32.5543L17.6614 32.5486V27.9543Z" fill="#EBEBEB"/>
<path d="M23.1014 20.7157L22.57 26.6286L17.6457 27.9571V32.5514L26.6971 30.0429L26.7643 29.2971L27.5314 20.7157H23.1014Z" fill="white"/>
<path d="M17.65 7.55V11.9657H6.98428L6.89571 10.9729L6.69428 8.73429L6.58856 7.55H17.65ZM17.6343 16.4871V20.9029H12.7786L12.69 19.91L12.49 17.6714L12.3843 16.4871H17.6343Z" fill="#EBEBEB"/>
</svg>
