<svg width="41" height="41" viewBox="0 0 41 41" fill="none" xmlns="http://www.w3.org/2000/svg">
<path d="M39.7457 18.718L22.2813 1.25458C21.2762 0.248799 19.6449 0.248799 18.6385 1.25458L15.0119 4.88114L19.6124 9.48161C20.6815 9.12036 21.9074 9.3627 22.7596 10.2149C23.6158 11.0725 23.8565 12.309 23.4865 13.3815L27.9201 17.8152C28.9927 17.4457 30.2304 17.6847 31.0871 18.5429C32.2844 19.7397 32.2844 21.6796 31.0871 22.8772C29.8894 24.075 27.9496 24.075 26.7513 22.8772C25.8507 21.9757 25.6282 20.653 26.0841 19.5435L21.9494 15.4088L21.949 26.2896C22.2487 26.4378 22.5224 26.6335 22.7596 26.8693C23.9569 28.0661 23.9569 30.0061 22.7596 31.2047C21.5619 32.4019 19.6212 32.4019 18.4252 31.2047C17.2279 30.0061 17.2279 28.0663 18.4252 26.8694C18.7122 26.5823 19.0532 26.355 19.4285 26.2005V15.2183C19.0526 15.0649 18.7114 14.8374 18.4252 14.5494C17.518 13.6435 17.2999 12.3124 17.7647 11.1985L13.2297 6.66302L1.25475 18.6372C0.248499 19.644 0.248499 21.2754 1.25475 22.2813L18.7194 39.7451C19.7249 40.751 21.3558 40.751 22.3626 39.7451L39.7455 22.3624C40.7515 21.3561 40.7516 19.7238 39.7457 18.718Z" fill="#DE4C36"/>
</svg>
