<svg width="40" height="41" viewBox="0 0 40 41" fill="none" xmlns="http://www.w3.org/2000/svg">
<path d="M0 0.5H40V40.5H0V0.5Z" fill="#F5DE19"/>
<path d="M26.87 31.75C27.2108 32.4423 27.7403 33.0242 28.3975 33.4286C29.0546 33.833 29.8127 34.0434 30.5843 34.0357C32.1414 34.0357 33.1371 33.2571 33.1371 32.1786C33.1371 30.8929 32.1143 30.4329 30.4 29.6829L29.46 29.28C26.7457 28.1243 24.9457 26.6771 24.9457 23.6171C24.9457 20.7986 27.0886 18.6514 30.45 18.6514C31.5382 18.5728 32.6254 18.8164 33.576 19.3517C34.5266 19.8869 35.2986 20.6903 35.7957 21.6614L32.8571 23.54C32.6657 23.0585 32.3325 22.6465 31.9016 22.3587C31.4706 22.0709 30.9624 21.9209 30.4443 21.9286C30.2182 21.9059 29.9899 21.9306 29.774 22.0011C29.558 22.0716 29.3591 22.1863 29.1898 22.3379C29.0206 22.4895 28.8849 22.6747 28.7912 22.8816C28.6975 23.0886 28.648 23.3128 28.6457 23.54C28.6457 24.6671 29.3443 25.1243 30.9571 25.8257L31.8971 26.2286C35.0914 27.5986 36.8971 28.9943 36.8971 32.1329C36.8971 35.5171 34.2386 37.3714 30.6686 37.3714C29.2776 37.4601 27.8907 37.1442 26.6752 36.4621C25.4597 35.78 24.4676 34.7606 23.8186 33.5271L26.87 31.75ZM13.5914 32.0757C14.1814 33.1229 14.7186 34.0086 16.01 34.0086C17.2443 34.0086 18.0243 33.5257 18.0243 31.6471V18.8657H21.7829V31.6971C21.7829 35.5886 19.4971 37.36 16.17 37.36C14.9939 37.4243 13.8259 37.1312 12.8196 36.5193C11.8132 35.9073 11.0155 35.0052 10.5314 33.9314L13.5914 32.0757Z" fill="black"/>
</svg>
