<svg width="38" height="42" viewBox="0 0 38 42" fill="none" xmlns="http://www.w3.org/2000/svg">
<g filter="url(#filter0_f_54_123)">
<path d="M35.7901 35.6136C35.7901 38.0927 28.274 40.1128 19.0001 40.1128C9.72618 40.1128 2.20996 38.1059 2.20996 35.6136C2.20996 33.1344 9.72618 31.1143 19 31.1143C28.274 31.1143 35.7771 33.1344 35.7901 35.6136Z" fill="black" fill-opacity="0.2"/>
</g>
<path d="M9.80487 30.7733C8.17829 28.4384 7.86346 20.8305 11.6543 16.1474C13.5301 13.9046 14.0155 12.3436 14.1598 10.2317C14.2646 7.83114 12.4676 0.682323 19.2361 0.144512C26.0965 -0.406442 25.7161 6.36198 25.6767 9.94311C25.6505 12.96 27.8936 14.6784 29.4413 17.0396C32.2878 21.3683 32.0517 28.8188 28.9035 32.859C24.9159 37.9092 21.5054 35.7185 19.2361 35.9022C14.9861 36.1514 14.8419 38.4077 9.80487 30.7733Z" fill="black"/>
<path d="M26.3588 17.4855C27.5394 18.5742 30.5957 23.4407 25.7554 26.484C24.0502 27.5465 27.2771 31.5866 28.8248 29.6321C31.5665 26.1167 29.8219 20.5025 28.169 18.4955C27.0671 17.0789 25.362 16.528 26.3589 17.4856L26.3588 17.4855Z" fill="url(#paint0_linear_54_123)"/>
<path d="M26.0309 16.8297C27.9721 18.4038 31.5007 23.9129 26.3457 27.507C24.6536 28.6221 27.841 32.1506 29.6382 30.3535C35.8688 24.0835 29.4807 16.8821 27.2769 14.4029C25.3094 12.2386 23.5648 14.9014 26.0309 16.8297Z" fill="black" stroke="black" stroke-width="0.132475"/>
<path d="M23.2369 3.56792C23.1713 5.36505 21.1906 6.9262 18.8164 7.07047C16.4422 7.21475 14.5796 5.85058 14.645 4.05345C14.7108 2.25631 16.6914 0.695303 19.0657 0.551029C21.4398 0.419898 23.3024 1.77093 23.2369 3.56792Z" fill="url(#paint1_linear_54_123)"/>
<path d="M17.5571 7.84429C17.6228 9.01176 17.0718 9.99554 16.311 10.0348C15.5502 10.0742 14.8812 9.16918 14.8156 8.0017C14.75 6.83423 15.301 5.85046 16.0618 5.81118C16.8226 5.77175 17.4917 6.67682 17.5571 7.84429Z" fill="url(#paint2_linear_54_123)"/>
<path d="M18.9344 7.93613C18.9607 9.28715 19.8396 10.3628 20.889 10.3366C21.9383 10.3104 22.7647 9.19531 22.7385 7.83114C22.7123 6.48011 21.8335 5.40449 20.784 5.43077C19.7346 5.45691 18.8951 6.58496 18.9344 7.93613Z" fill="url(#paint3_linear_54_123)"/>
<path d="M19.8002 8.23781C19.7871 8.98546 20.1545 9.58884 20.6397 9.58884C21.1119 9.58884 21.5186 8.98546 21.5318 8.25095C21.5448 7.5033 21.1775 6.89978 20.6921 6.89978C20.2069 6.89978 19.8133 7.5033 19.8002 8.23781ZM16.7702 8.25095C16.8357 8.86747 16.5996 9.39214 16.2585 9.44456C15.9175 9.48399 15.5896 9.02488 15.524 8.40837C15.4583 7.79185 15.6945 7.26703 16.0355 7.21461C16.3766 7.17533 16.7046 7.63443 16.7702 8.25095Z" fill="black"/>
<path d="M19.997 7.81801C19.9575 8.23784 20.1544 8.57881 20.4298 8.60509C20.7052 8.63137 20.9676 8.3034 21.0069 7.89672C21.0463 7.47704 20.8495 7.13593 20.5741 7.10965C20.2987 7.08351 20.0363 7.41133 19.997 7.81801Z" fill="url(#paint4_linear_54_123)"/>
<path d="M16.4814 7.923C16.5208 8.26411 16.3766 8.5658 16.1667 8.59194C15.9568 8.61822 15.7601 8.35582 15.7206 8.0017C15.6813 7.66059 15.8256 7.3589 16.0355 7.33276C16.2454 7.30648 16.4421 7.58188 16.4814 7.923Z" fill="url(#paint5_linear_54_123)"/>
<path d="M12.3496 20.8042C13.2809 18.6922 15.2616 14.9801 15.301 12.1073C15.301 9.82496 22.1351 9.274 22.6861 11.5565C23.2369 13.8389 24.6274 17.2493 25.5193 18.9022C26.4114 20.5418 28.9954 25.7756 26.2408 30.3403C23.7616 34.3806 16.2455 37.5812 12.2316 29.7895C10.8674 27.0873 11.1165 23.7425 12.3496 20.8042Z" fill="url(#paint6_linear_54_123)"/>
<path d="M11.51 19.23C10.7099 20.7385 9.05704 24.7 13.0973 26.8644C17.439 29.173 17.4259 33.9084 12.2052 31.6521C7.4306 29.619 9.54243 21.3813 10.8805 19.4137C11.7461 18.0364 13.0578 16.3443 11.51 19.23Z" fill="url(#paint7_linear_54_123)"/>
<path d="M12.1921 17.5249C10.9198 19.5974 7.87662 24.477 11.9561 27.0218C17.4391 30.3929 15.8912 33.7509 10.8805 30.7208C3.82339 26.4971 10.0277 17.9708 12.8481 14.7178C16.0749 11.0711 13.4646 15.3869 12.1921 17.5249Z" fill="black" stroke="black" stroke-width="0.169492"/>
<path d="M24.5487 21.6043C24.5487 23.9129 22.3319 26.9038 18.5278 26.8775C14.6058 26.9037 12.9399 23.9129 12.9399 21.6043C12.9399 19.2957 15.5371 17.4199 18.7377 17.4199C21.9515 17.433 24.5487 19.2957 24.5487 21.6043Z" fill="url(#paint8_linear_54_123)"/>
<path d="M22.4762 14.3504C22.4368 16.7378 20.8758 17.3019 18.9083 17.3019C16.9406 17.3019 15.5108 16.9477 15.3403 14.3504C15.3403 12.7239 16.9406 11.7795 18.9083 11.7795C20.8758 11.7664 22.4762 12.7109 22.4762 14.3504Z" fill="url(#paint9_linear_54_123)"/>
<path d="M10.5787 18.0233C11.8643 16.0689 14.5795 13.065 11.0904 18.4431C8.25703 22.8767 10.041 25.7232 10.9592 26.5101C13.6089 28.8714 13.5039 30.4584 11.4183 29.2123C6.94529 26.5496 7.87664 22.0634 10.5787 18.0233Z" fill="url(#paint10_linear_54_123)"/>
<path d="M29.1922 18.8235C28.0772 16.528 24.5355 10.7039 29.3626 17.4723C33.757 23.5981 30.6744 27.8613 30.1234 28.281C29.5726 28.7008 27.7231 29.5534 28.2607 28.0711C28.8118 26.5888 31.5402 23.7818 29.1921 18.8234L29.1922 18.8235Z" fill="url(#paint11_linear_54_123)"/>
<path d="M9.60807 36.9254C6.66975 35.3644 2.40669 37.2271 3.95455 33.0033C4.26938 32.0457 3.49545 30.6028 3.99384 29.6714C4.58421 28.5302 5.85654 28.7795 6.61733 28.0187C7.36498 27.2316 7.83722 25.8675 9.24082 26.0774C10.6313 26.2871 11.5626 27.9924 12.5333 30.0913C13.2546 31.5866 15.7994 33.6985 15.629 35.3775C15.419 37.9484 12.4938 38.4338 9.60807 36.9254Z" fill="url(#paint12_linear_54_123)" stroke="#E68C3F" stroke-width="0.847458"/>
<path d="M31.0023 27.0087C30.5564 27.8482 28.6937 29.1992 27.4475 28.8451C26.1883 28.504 25.6111 26.5888 25.8604 25.1328C26.0965 23.5064 27.4475 23.4144 29.1529 24.2278C30.9892 25.1328 31.5402 25.8936 31.0023 27.0087Z" fill="url(#paint13_linear_54_123)"/>
<path d="M29.9792 36.2037C32.1304 33.5935 36.9183 34.1313 33.6915 30.5503C33.0094 29.7764 33.2192 28.1236 32.3797 27.4153C31.3959 26.5495 30.3072 27.2579 29.3103 26.8119C28.3133 26.3266 27.264 25.3952 26.0441 26.051C24.8242 26.7201 24.6929 28.4515 24.5749 30.7339C24.47 32.3736 22.9747 35.1151 23.7747 36.6235C24.9291 38.9585 27.9329 38.6435 29.9792 36.2037Z" fill="url(#paint14_linear_54_123)" stroke="#E68C3F" stroke-width="0.847593"/>
<path d="M29.0478 32.7146C32.3797 27.7957 29.9006 27.835 29.061 27.4546C28.2215 27.0611 27.3425 26.2871 26.3589 26.8249C25.375 27.3759 25.3226 28.7926 25.2963 30.6552C25.257 31.9932 24.1421 34.2363 24.811 35.4824C25.6243 36.9384 27.5918 34.8266 29.0478 32.7146Z" fill="url(#paint15_linear_54_123)"/>
<path d="M8.92596 33.423C3.94139 30.1961 6.27619 29.0943 7.02398 28.5827C7.92905 27.9269 7.94219 26.6675 9.05709 26.7857C10.1721 26.9037 10.8279 28.281 11.5756 29.9863C12.1265 31.2062 14.0417 32.8327 13.8974 34.2363C13.7138 35.889 11.0772 34.8003 8.92596 33.423Z" fill="url(#paint16_linear_54_123)"/>
<path d="M30.7138 26.9692C30.3203 27.6515 28.72 28.7271 27.6575 28.4384C26.5687 28.163 26.0702 26.6283 26.2933 25.4739C26.49 24.1622 27.6575 24.0966 29.1265 24.7526C30.6875 25.4608 31.1729 26.0642 30.7138 26.9692Z" fill="black"/>
<path d="M29.6382 26.5888C29.3889 27.0611 28.3396 27.8087 27.6049 27.612C26.8704 27.4153 26.5032 26.3529 26.6212 25.5526C26.7262 24.6476 27.5131 24.595 28.51 25.0411C29.5856 25.5396 29.9267 25.9593 29.6382 26.5888Z" fill="url(#paint17_linear_54_123)"/>
<path d="M16.0749 9.47085C16.5996 8.98547 17.8719 7.50331 20.2856 9.05103C20.7315 9.33958 21.0988 9.36586 21.9514 9.73312C23.6699 10.4416 22.8565 12.1468 21.0201 12.7239C20.233 12.9731 19.5248 13.9308 18.1081 13.8389C16.8882 13.7732 16.5733 12.9733 15.8257 12.5403C14.5008 11.7927 14.3041 10.7826 15.0255 10.2448C15.747 9.70698 16.0225 9.51014 16.0749 9.47085Z" fill="url(#paint18_linear_54_123)" stroke="#E68C3F" stroke-width="0.508475"/>
<path d="M21.9777 10.8482C21.2563 10.8875 19.6952 12.4485 18.0556 12.4485C16.4159 12.4485 15.4321 10.9269 15.183 10.9269" stroke="#E68C3F" stroke-width="0.338983"/>
<path d="M16.8881 9.33972C17.1506 9.1036 17.9769 8.46079 19.0657 9.1166C19.3018 9.24787 19.5379 9.39214 19.8789 9.58884C20.5741 9.99552 20.2331 10.5859 19.3935 10.953C19.0131 11.1104 18.3836 11.4515 17.9113 11.4253C17.3867 11.3728 17.0324 11.0317 16.6914 10.8087C16.0486 10.3891 16.0881 10.0348 16.3898 9.7594C16.6126 9.54942 16.8617 9.35272 16.8881 9.33972Z" fill="url(#paint19_linear_54_123)"/>
<defs>
<filter id="filter0_f_54_123" x="0.447249" y="29.3516" width="37.1056" height="12.5239" filterUnits="userSpaceOnUse" color-interpolation-filters="sRGB">
<feFlood flood-opacity="0" result="BackgroundImageFix"/>
<feBlend mode="normal" in="SourceGraphic" in2="BackgroundImageFix" result="shape"/>
<feGaussianBlur stdDeviation="0.881356" result="effect1_foregroundBlur_54_123"/>
</filter>
<linearGradient id="paint0_linear_54_123" x1="27.6922" y1="32.1676" x2="28.5532" y2="22.5125" gradientUnits="userSpaceOnUse">
<stop stop-color="#FFEED7"/>
<stop offset="1" stop-color="#BDBFC2"/>
</linearGradient>
<linearGradient id="paint1_linear_54_123" x1="19.3198" y1="0.699427" x2="18.9088" y2="6.48359" gradientUnits="userSpaceOnUse">
<stop stop-color="white" stop-opacity="0.8"/>
<stop offset="1" stop-color="white" stop-opacity="0"/>
</linearGradient>
<linearGradient id="paint2_linear_54_123" x1="16.2375" y1="9.5394" x2="15.9844" y2="6.23303" gradientUnits="userSpaceOnUse">
<stop stop-color="#FFEED7"/>
<stop offset="1" stop-color="#BDBFC2"/>
</linearGradient>
<linearGradient id="paint3_linear_54_123" x1="20.8333" y1="9.62513" x2="20.8332" y2="6.10798" gradientUnits="userSpaceOnUse">
<stop stop-color="#FFEED7"/>
<stop offset="1" stop-color="#BDBFC2"/>
</linearGradient>
<linearGradient id="paint4_linear_54_123" x1="20.5417" y1="7.15466" x2="20.3684" y2="8.50322" gradientUnits="userSpaceOnUse">
<stop stop-color="white" stop-opacity="0.65"/>
<stop offset="1" stop-color="white" stop-opacity="0"/>
</linearGradient>
<linearGradient id="paint5_linear_54_123" x1="16.0669" y1="7.40016" x2="16.2535" y2="8.49229" gradientUnits="userSpaceOnUse">
<stop stop-color="white" stop-opacity="0.65"/>
<stop offset="1" stop-color="white" stop-opacity="0"/>
</linearGradient>
<linearGradient id="paint6_linear_54_123" x1="19.3915" y1="32.0719" x2="19.3915" y2="20.0342" gradientUnits="userSpaceOnUse">
<stop stop-color="#FFEED7"/>
<stop offset="1" stop-color="#BDBFC2"/>
</linearGradient>
<linearGradient id="paint7_linear_54_123" x1="12.9888" y1="32.2425" x2="9.9162" y2="21.768" gradientUnits="userSpaceOnUse">
<stop stop-color="#FFEED7"/>
<stop offset="1" stop-color="#BDBFC2"/>
</linearGradient>
<linearGradient id="paint8_linear_54_123" x1="18.7258" y1="18.6711" x2="18.7567" y2="26.3739" gradientUnits="userSpaceOnUse">
<stop stop-color="white" stop-opacity="0.8"/>
<stop offset="1" stop-color="white" stop-opacity="0"/>
</linearGradient>
<linearGradient id="paint9_linear_54_123" x1="18.903" y1="13.8408" x2="18.9372" y2="16.9036" gradientUnits="userSpaceOnUse">
<stop stop-color="white" stop-opacity="0.65"/>
<stop offset="1" stop-color="white" stop-opacity="0"/>
</linearGradient>
<linearGradient id="paint10_linear_54_123" x1="10.6316" y1="15.7312" x2="10.6316" y2="26.971" gradientUnits="userSpaceOnUse">
<stop stop-color="white" stop-opacity="0.65"/>
<stop offset="1" stop-color="white" stop-opacity="0"/>
</linearGradient>
<linearGradient id="paint11_linear_54_123" x1="29.282" y1="14.6333" x2="29.278" y2="24.789" gradientUnits="userSpaceOnUse">
<stop stop-color="white" stop-opacity="0.65"/>
<stop offset="1" stop-color="white" stop-opacity="0"/>
</linearGradient>
<linearGradient id="paint12_linear_54_123" x1="10.048" y1="31.7896" x2="8.38117" y2="37.5759" gradientUnits="userSpaceOnUse">
<stop stop-color="#FFA63F"/>
<stop offset="1" stop-color="#FFFF00"/>
</linearGradient>
<linearGradient id="paint13_linear_54_123" x1="28.6291" y1="31.1294" x2="28.391" y2="20.3808" gradientUnits="userSpaceOnUse">
<stop stop-color="#FFEED7"/>
<stop offset="1" stop-color="#BDBFC2"/>
</linearGradient>
<linearGradient id="paint14_linear_54_123" x1="26.9766" y1="30.0404" x2="31.5152" y2="36.4703" gradientUnits="userSpaceOnUse">
<stop stop-color="#FFA63F"/>
<stop offset="1" stop-color="#FFFF00"/>
</linearGradient>
<linearGradient id="paint15_linear_54_123" x1="28.2554" y1="25.0359" x2="26.7043" y2="32.6291" gradientUnits="userSpaceOnUse">
<stop stop-color="white" stop-opacity="0.65"/>
<stop offset="1" stop-color="white" stop-opacity="0"/>
</linearGradient>
<linearGradient id="paint16_linear_54_123" x1="9.6834" y1="26.9077" x2="9.98995" y2="35.4269" gradientUnits="userSpaceOnUse">
<stop stop-color="white" stop-opacity="0.65"/>
<stop offset="1" stop-color="white" stop-opacity="0"/>
</linearGradient>
<linearGradient id="paint17_linear_54_123" x1="27.9655" y1="24.8981" x2="28.3246" y2="27.4473" gradientUnits="userSpaceOnUse">
<stop stop-color="white" stop-opacity="0.65"/>
<stop offset="1" stop-color="white" stop-opacity="0"/>
</linearGradient>
<linearGradient id="paint18_linear_54_123" x1="18.7323" y1="9.32905" x2="18.7622" y2="13.8116" gradientUnits="userSpaceOnUse">
<stop stop-color="#FFA63F"/>
<stop offset="1" stop-color="#FFFF00"/>
</linearGradient>
<linearGradient id="paint19_linear_54_123" x1="18.2228" y1="8.90512" x2="18.2147" y2="11.2754" gradientUnits="userSpaceOnUse">
<stop stop-color="white" stop-opacity="0.65"/>
<stop offset="1" stop-color="white" stop-opacity="0"/>
</linearGradient>
</defs>
</svg>
