<svg width="54" height="41" viewBox="0 0 54 41" fill="none" xmlns="http://www.w3.org/2000/svg">
<path d="M46.0258 23.0891C44.1651 23.0987 42.5478 23.5469 41.1938 24.2094C40.6967 23.2253 40.1999 22.3487 40.1124 21.7056C40.0148 20.9556 39.898 20.4976 40.0148 19.6013C40.1318 18.705 40.6579 17.4287 40.648 17.3313C40.6384 17.2339 40.531 16.776 39.4595 16.7664C38.3879 16.7565 37.4623 16.9709 37.3551 17.2534C37.248 17.5358 37.0434 18.1789 36.907 18.8412C36.7219 19.8156 34.7638 23.2934 33.6435 25.1153C33.2829 24.4043 32.9712 23.7807 32.9029 23.2838C32.8055 22.5338 32.6885 22.0758 32.8055 21.1795C32.9225 20.2832 33.4486 19.0071 33.4388 18.9095C33.429 18.8122 33.3218 18.3542 32.2502 18.3446C31.1784 18.3348 30.2529 18.5491 30.1459 18.8316C30.0387 19.1143 29.9217 19.7766 29.6977 20.4197C29.4736 21.0627 26.8724 26.8692 26.1905 28.3693C25.9149 28.9765 25.6258 29.5775 25.3234 30.1718C25.3234 30.1718 25.3136 30.201 25.2844 30.2497C25.1894 30.436 25.092 30.6212 24.9923 30.805V30.8146C24.846 31.0779 24.6902 31.3213 24.6122 31.3213C24.5537 31.3213 24.4466 30.6199 24.6317 29.6651C25.0213 27.6485 25.9469 24.5115 25.9373 24.4043C25.9373 24.3458 26.1126 23.8003 25.3333 23.5176C24.5732 23.2352 24.3005 23.7027 24.2322 23.7027C24.1641 23.7027 24.1152 23.8684 24.1152 23.8684C24.1152 23.8684 24.963 20.3417 22.4981 20.3417C20.9589 20.3417 18.835 22.0271 17.7828 23.5469C16.5868 24.1978 15.3917 24.8505 14.1976 25.5052C13.6231 25.8267 13.0287 26.1482 12.4734 26.4501C12.4343 26.4113 12.3954 26.3624 12.3564 26.3235C9.37518 23.1378 3.86117 20.8872 4.09496 16.6105C4.18271 15.0517 4.7184 10.9598 14.6849 5.99135C22.8878 1.94819 29.4153 3.06845 30.5454 5.55281C32.1625 9.09914 27.0479 15.6849 18.572 16.6395C15.3375 17.0001 13.6423 15.7531 13.2138 15.2855C12.7657 14.7983 12.6973 14.769 12.5317 14.8666C12.259 15.0128 12.4343 15.4512 12.5317 15.7044C12.7851 16.3667 13.8274 17.5358 15.5908 18.1108C17.1496 18.6172 20.9393 18.8999 25.528 17.1268C30.6622 15.1392 34.6761 9.6154 33.4973 4.98787C32.3183 0.29202 24.5245 -1.25697 17.1496 1.36361C12.7657 2.92262 8.0113 5.37752 4.59179 8.57306C0.5292 12.3724 -0.113878 15.6751 0.149162 17.0586C1.09435 21.9686 7.86526 25.1642 10.5736 27.5315C10.4372 27.6095 10.3103 27.6778 10.2034 27.7363C8.8491 28.4084 3.68567 31.1069 2.39973 33.9615C0.938489 37.1959 2.63372 39.5148 3.75399 39.8263C7.232 40.7909 10.8074 39.0568 12.7266 36.1924C14.6458 33.3282 14.412 29.6066 13.5255 27.9018C13.5157 27.8823 13.5061 27.8627 13.4865 27.8433C13.8372 27.6387 14.1976 27.4244 14.5484 27.2198C15.1932 26.8387 15.8461 26.4716 16.5067 26.1188C16.1753 27.0249 15.9317 28.1063 15.8149 29.6651C15.6687 31.4968 16.4187 33.8737 17.4028 34.8089C17.8413 35.2184 18.3576 35.228 18.6889 35.228C19.8385 35.228 20.3549 34.2732 20.9297 33.1431C21.6311 31.7598 22.2643 30.1523 22.2643 30.1523C22.2643 30.1523 21.4752 34.4974 23.6186 34.4974C24.3979 34.4974 25.187 33.4841 25.5378 32.9678V32.9774C25.5378 32.9774 25.5572 32.9482 25.5963 32.8801C25.6742 32.7535 25.7229 32.6753 25.7229 32.6753V32.6561C26.0346 32.1104 26.7362 30.8731 27.7785 28.8175C29.123 26.1677 30.4188 22.8553 30.4188 22.8553C30.4188 22.8553 30.5358 23.6639 30.935 25.0083C31.169 25.7974 31.6558 26.6645 32.0457 27.5023C31.734 27.9408 31.539 28.1842 31.539 28.1842L31.5488 28.194C31.2954 28.5252 31.0228 28.8856 30.7207 29.2366C29.6587 30.5029 28.3924 31.9547 28.2169 32.3734C28.0121 32.8703 28.061 33.2309 28.4509 33.5232C28.7333 33.7375 29.2398 33.7666 29.7562 33.7375C30.711 33.6692 31.3832 33.4354 31.7143 33.2894C32.2308 33.1043 32.8348 32.8216 33.3997 32.4027C34.4423 31.633 35.0753 30.5322 35.017 29.0807C34.9878 28.2818 34.7247 27.4829 34.4032 26.7326C34.5008 26.5964 34.5883 26.46 34.6859 26.3235C36.3322 23.9171 37.6086 21.2769 37.6086 21.2769C37.6086 21.2769 37.7256 22.0854 38.1248 23.4301C38.3198 24.112 38.7192 24.8525 39.0698 25.5733C37.5208 26.8302 36.566 28.2914 36.2251 29.2462C35.6114 31.0194 36.0886 31.8181 36.9947 32.0032C37.4038 32.091 37.9884 31.896 38.4171 31.7109C38.9626 31.5356 39.6057 31.2337 40.2195 30.7854C41.2621 30.0159 42.2653 28.9441 42.2068 27.4927C42.1776 26.8302 42.0023 26.1773 41.7587 25.544C43.0739 24.9987 44.7691 24.6966 46.9317 24.9498C51.5693 25.4953 52.485 28.3888 52.3095 29.6068C52.1342 30.8244 51.16 31.4869 50.8387 31.6915C50.5169 31.8962 50.41 31.9643 50.4392 32.1104C50.4781 32.3247 50.6339 32.3151 50.9068 32.2761C51.2868 32.208 53.3425 31.292 53.43 29.0513C53.5763 26.1871 50.8483 23.0599 46.0258 23.0891ZM10.252 35.1501C8.71267 36.8257 6.5695 37.4589 5.64395 36.9232C4.65029 36.3483 5.03994 33.8737 6.9299 32.1008C8.07941 31.0194 9.56029 30.0157 10.5443 29.4021C10.7683 29.2656 11.0997 29.0709 11.4991 28.8273C11.5672 28.7882 11.6063 28.7688 11.6063 28.7688L11.8401 28.6226C12.5317 31.1556 11.8694 33.3867 10.252 35.1501ZM21.4558 27.5315C20.9199 28.8371 19.7996 32.1787 19.1177 31.9936C18.5331 31.8377 18.1725 29.3047 19.0007 26.8009C19.4196 25.544 20.306 24.0437 20.8225 23.4593C21.6603 22.524 22.5859 22.212 22.8098 22.5923C23.0925 23.0891 21.7869 26.7132 21.4558 27.5315ZM30.7012 31.9545C30.477 32.0715 30.2629 32.1495 30.1653 32.091C30.0972 32.0519 30.2629 31.896 30.2629 31.896C30.2629 31.896 31.4222 30.6492 31.88 30.084C32.1432 29.7529 32.4548 29.3632 32.7861 28.9247V29.0513C32.7861 30.542 31.3441 31.5455 30.701 31.9545H30.7012ZM37.8325 30.3276C37.6669 30.2106 37.6961 29.821 38.2514 28.6031C38.4658 28.1257 38.9722 27.327 39.8395 26.5573C39.9369 26.869 40.0052 27.1711 39.9954 27.4536C39.9855 29.334 38.6413 30.0353 37.8325 30.3276Z" fill="#CD6799"/>
</svg>
