<svg width="40" height="41" viewBox="0 0 40 41" fill="none" xmlns="http://www.w3.org/2000/svg">
<g clip-path="url(#clip0_57_463)">
<path d="M36.0938 0.5H3.90625C1.74889 0.5 0 2.24889 0 4.40625V36.5938C0 38.7511 1.74889 40.5 3.90625 40.5H36.0938C38.2511 40.5 40 38.7511 40 36.5938V4.40625C40 2.24889 38.2511 0.5 36.0938 0.5Z" fill="url(#paint0_linear_57_463)"/>
<path d="M32.925 5.70001H24.475C23.4394 5.70001 22.6 6.53948 22.6 7.57501V21.325C22.6 22.3605 23.4394 23.2 24.475 23.2H32.925C33.9605 23.2 34.8 22.3605 34.8 21.325V7.57501C34.8 6.53948 33.9605 5.70001 32.925 5.70001Z" fill="white"/>
<path d="M15.525 5.70001H7.07501C6.03948 5.70001 5.20001 6.53948 5.20001 7.57501V31.325C5.20001 32.3605 6.03948 33.2 7.07501 33.2H15.525C16.5605 33.2 17.4 32.3605 17.4 31.325V7.57501C17.4 6.53948 16.5605 5.70001 15.525 5.70001Z" fill="white"/>
</g>
<defs>
<linearGradient id="paint0_linear_57_463" x1="20" y1="0.5" x2="20" y2="40.5" gradientUnits="userSpaceOnUse">
<stop stop-color="#0091E6"/>
<stop offset="1" stop-color="#0079BF"/>
</linearGradient>
<clipPath id="clip0_57_463">
<rect width="40" height="40" fill="white" transform="translate(0 0.5)"/>
</clipPath>
</defs>
</svg>
