<svg width="41" height="41" viewBox="0 0 41 41" fill="none" xmlns="http://www.w3.org/2000/svg">
<path d="M3.625 0.5H37.375C39.1009 0.5 40.5 1.89906 40.5 3.625V37.375C40.5 39.1009 39.1009 40.5 37.375 40.5H3.625C1.89906 40.5 0.5 39.1009 0.5 37.375V3.625C0.5 1.89906 1.89906 0.5 3.625 0.5Z" fill="#3178C6"/>
<path d="M24.0184 31.8242V36.1398C24.7203 36.4995 25.5505 36.7692 26.5087 36.9491C27.467 37.1289 28.477 37.2188 29.5389 37.2188C30.5736 37.2188 31.5567 37.1198 32.488 36.922C33.4192 36.7242 34.2359 36.3983 34.9377 35.9444C35.6395 35.4903 36.1952 34.8969 36.6047 34.1641C37.0141 33.4314 37.2188 32.5256 37.2188 31.4467C37.2188 30.6645 37.1017 29.9789 36.8678 29.39C36.6365 28.8051 36.2925 28.2713 35.8555 27.8189C35.4147 27.3603 34.8859 26.9491 34.2697 26.5848C33.6533 26.2208 32.9581 25.8769 32.1842 25.5533C31.6173 25.3194 31.1091 25.0925 30.6591 24.8722C30.2092 24.6519 29.8267 24.4272 29.5119 24.1978C29.1969 23.9686 28.9539 23.7258 28.783 23.4695C28.612 23.2133 28.5266 22.9234 28.5266 22.5997C28.5266 22.303 28.603 22.0356 28.7559 21.7973C28.9089 21.5591 29.125 21.3545 29.4039 21.1838C29.6828 21.0128 30.0247 20.8803 30.4297 20.7858C30.8345 20.6914 31.2845 20.6442 31.7794 20.6442C32.1394 20.6442 32.5195 20.6712 32.9198 20.7252C33.3203 20.7791 33.723 20.8622 34.128 20.9747C34.5317 21.0866 34.9264 21.2286 35.3089 21.3995C35.6798 21.5639 36.0345 21.7625 36.3684 21.9928V17.9605C35.7116 17.7088 34.9939 17.5222 34.2156 17.4008C33.4373 17.2794 32.5442 17.2188 31.5364 17.2188C30.5106 17.2188 29.5389 17.3289 28.6211 17.5492C27.7033 17.7694 26.8956 18.1133 26.1983 18.5808C25.5009 19.0484 24.9498 19.6441 24.5448 20.3678C24.14 21.0916 23.9375 21.9569 23.9375 22.9639C23.9375 24.2495 24.3086 25.3464 25.0511 26.2545C25.7934 27.1625 26.9203 27.9312 28.432 28.5606C28.9901 28.7879 29.5436 29.0262 30.0922 29.2755C30.6052 29.5092 31.0483 29.7519 31.4217 30.0036C31.7952 30.2553 32.0898 30.5295 32.3058 30.8263C32.5217 31.123 32.6297 31.4602 32.6297 31.8378C32.6315 32.1096 32.5616 32.3771 32.4272 32.6133C32.2923 32.8514 32.0875 33.0583 31.8131 33.2336C31.5388 33.4089 31.1967 33.5459 30.7873 33.6448C30.378 33.7437 29.8988 33.7933 29.3498 33.7933C28.4141 33.7933 27.4873 33.6292 26.5695 33.3009C25.6516 32.9728 24.8013 32.4806 24.0184 31.8242ZM16.8253 21.0847H22.375V17.5312H6.90625V21.0847H12.4289V36.9062H16.8253V21.0847Z" fill="white"/>
</svg>
