<svg width="41" height="41" viewBox="0 0 41 41" fill="none" xmlns="http://www.w3.org/2000/svg">
<path d="M40.3159 6.4203L21.5501 39.9765C21.462 40.1343 21.3335 40.2659 21.1778 40.3577C21.0221 40.4495 20.8448 40.4983 20.664 40.499C20.4833 40.4997 20.3056 40.4524 20.1492 40.3618C19.9927 40.2713 19.8632 40.1408 19.7738 39.9837L0.636751 6.42316C0.540537 6.25477 0.494348 6.06243 0.503603 5.86871C0.512859 5.67499 0.577176 5.48793 0.689006 5.32948C0.800837 5.17103 0.955541 5.04776 1.13496 4.97414C1.31439 4.90052 1.51109 4.8796 1.70198 4.91384L20.4877 8.27232C20.6072 8.29383 20.7295 8.29383 20.849 8.27232L39.2421 4.91955C39.4323 4.88481 39.6284 4.90484 39.8076 4.9773C39.9868 5.04977 40.1417 5.17169 40.2542 5.32885C40.3668 5.486 40.4324 5.67192 40.4433 5.86491C40.4542 6.05791 40.41 6.25146 40.3159 6.4203Z" fill="url(#paint0_linear_54_176)"/>
<path d="M29.4351 0.510127L15.55 3.23032C15.4388 3.25203 15.3381 3.31013 15.2636 3.39545C15.1891 3.48078 15.1452 3.58847 15.1387 3.70154L14.2848 18.1293C14.2801 18.2084 14.2939 18.2876 14.3252 18.3605C14.3564 18.4333 14.4042 18.4979 14.4648 18.5491C14.5254 18.6002 14.5971 18.6365 14.6742 18.6551C14.7512 18.6737 14.8316 18.6741 14.9088 18.6562L18.7742 17.7637C18.8575 17.7445 18.9443 17.7465 19.0266 17.7696C19.1089 17.7926 19.184 17.836 19.2452 17.8957C19.3063 17.9555 19.3515 18.0296 19.3765 18.1113C19.4015 18.1931 19.4055 18.2798 19.3882 18.3635L18.2402 23.9881C18.2225 24.0746 18.2276 24.1643 18.255 24.2484C18.2824 24.3324 18.3312 24.4078 18.3966 24.4673C18.462 24.5268 18.5417 24.5682 18.6279 24.5876C18.7141 24.607 18.8039 24.6036 18.8885 24.5778L21.276 23.8524C21.3606 23.8265 21.4506 23.8231 21.537 23.8425C21.6233 23.8619 21.7032 23.9035 21.7686 23.9632C21.834 24.0228 21.8828 24.0985 21.9101 24.1827C21.9374 24.267 21.9422 24.3569 21.9242 24.4436L20.0979 33.2781C19.9837 33.8307 20.7191 34.132 21.0261 33.6594L21.2303 33.3424L32.5466 10.7598C32.589 10.6747 32.6069 10.5794 32.598 10.4847C32.5892 10.39 32.554 10.2997 32.4966 10.2239C32.4391 10.1482 32.3615 10.09 32.2727 10.056C32.1839 10.022 32.0873 10.0135 31.9939 10.0315L28.0143 10.7983C27.9287 10.8147 27.8402 10.8089 27.7575 10.7813C27.6747 10.7538 27.6004 10.7054 27.5417 10.641C27.4829 10.5765 27.4417 10.498 27.422 10.4131C27.4022 10.3281 27.4046 10.2395 27.4289 10.1558L30.0248 1.15127C30.0493 1.06722 30.0517 0.978296 30.0318 0.893052C30.012 0.807807 29.9705 0.729115 29.9114 0.664556C29.8523 0.599997 29.7775 0.551745 29.6944 0.524447C29.6112 0.497149 29.5224 0.491726 29.4365 0.508699L29.4351 0.510127Z" fill="url(#paint1_linear_54_176)"/>
<defs>
<linearGradient id="paint0_linear_54_176" x1="0.169134" y1="3.71419" x2="23.5231" y2="35.4307" gradientUnits="userSpaceOnUse">
<stop stop-color="#41D1FF"/>
<stop offset="1" stop-color="#BD34FE"/>
</linearGradient>
<linearGradient id="paint1_linear_54_176" x1="19.4082" y1="1.24805" x2="23.6328" y2="30.2285" gradientUnits="userSpaceOnUse">
<stop stop-color="#FFEA83"/>
<stop offset="0.083" stop-color="#FFDD35"/>
<stop offset="1" stop-color="#FFA800"/>
</linearGradient>
</defs>
</svg>
