<svg width="41" height="41" viewBox="0 0 41 41" fill="none" xmlns="http://www.w3.org/2000/svg">
<path d="M19.7739 0.0166475C23.7275 -0.126957 27.635 0.905266 31.0019 2.98274C34.3689 5.06022 37.0441 8.08961 38.689 11.6877C40.334 15.2858 40.8749 19.2909 40.2433 23.1965C39.6116 27.102 37.8359 30.7325 35.1406 33.6287C32.4454 36.5248 28.9517 38.5566 25.1015 39.4669C21.2514 40.3772 17.2178 40.1251 13.5109 38.7426C9.80402 37.3601 6.59045 34.9092 4.27669 31.7001C1.96293 28.4909 0.652944 24.6676 0.512432 20.7138C0.327575 15.4164 2.25181 10.2621 5.86289 6.38187C9.47396 2.50163 14.4769 0.212445 19.7739 0.0166475Z" fill="black"/>
<path d="M31.2025 13.6581L27.4382 23.1038L23.651 13.6581H20.551L25.8639 26.5509L22.0882 35.6423L24.8025 36.1781L34.1396 13.6581H31.2025Z" fill="#D2D2D2"/>
<path d="M14.6653 16.0466C15.4122 16.0322 16.1462 16.2424 16.7723 16.6499C17.3983 17.0574 17.8876 17.6435 18.1767 18.3324L18.2282 18.4452L20.8696 17.5552L20.8124 17.4209C20.3094 16.2138 19.4542 15.1865 18.3583 14.4729C17.2625 13.7593 15.977 13.3927 14.6696 13.4209C13.7772 13.3926 12.8884 13.5455 12.0567 13.8703C11.2251 14.1952 10.4679 14.6853 9.83102 15.3109C9.19473 15.9182 8.69166 16.6511 8.35375 17.4632C8.01584 18.2752 7.85048 19.1487 7.86816 20.0281C7.8506 20.9043 8.01567 21.7746 8.35287 22.5835C8.69007 23.3925 9.19201 24.1223 9.82674 24.7266C10.4635 25.3526 11.2206 25.8429 12.0523 26.168C12.8839 26.4931 13.7728 26.6462 14.6653 26.6181C15.9726 26.6459 17.258 26.2791 18.3537 25.5656C19.4495 24.8521 20.3048 23.8249 20.8082 22.6181L20.8653 22.4838L18.2196 21.5924L18.1696 21.7109C17.8875 22.4036 17.4 22.9933 16.7728 23.4007C16.1455 23.808 15.4086 24.0135 14.661 23.9895C14.1503 23.9995 13.643 23.9041 13.1708 23.7092C12.6986 23.5143 12.2717 23.224 11.9167 22.8566C11.551 22.4843 11.2639 22.0424 11.0722 21.557C10.8805 21.0716 10.7883 20.5526 10.801 20.0309C10.7878 19.5044 10.8797 18.9806 11.0712 18.49C11.2628 17.9995 11.5502 17.552 11.9167 17.1738C12.2723 16.8046 12.7008 16.5133 13.1749 16.3185C13.6491 16.1237 14.1586 16.0297 14.671 16.0424L14.6653 16.0466Z" fill="#D2D2D2"/>
<path d="M29.4182 33.9995C32.9486 31.7771 35.5126 28.3066 36.5996 24.279C37.6866 20.2514 37.2168 15.9621 35.2839 12.2652L37.6867 11.0238C39.9354 15.3168 40.4831 20.2998 39.2206 24.9787C37.9582 29.6577 34.9783 33.6888 30.8753 36.2681L29.4182 33.9995Z" fill="url(#paint0_linear_56_105)"/>
<path d="M1.78103 25.0881C1.32163 23.4251 1.08905 21.7076 1.0896 19.9824C1.11652 16.08 2.31956 12.2764 4.54163 9.06828C6.76369 5.86018 9.90151 3.3967 13.5453 1.99951L14.5225 4.50665C11.3879 5.70983 8.68878 7.83 6.77746 10.5905C4.86613 13.3509 3.83136 16.6234 3.80817 19.9809C3.80758 21.4653 4.00748 22.9429 4.40246 24.3738L1.78103 25.0881Z" fill="#58D09E"/>
<path d="M13.4153 2.06236C17.8975 0.324833 22.8631 0.301695 27.3613 1.99738C31.8595 3.69306 35.5741 6.98838 37.7939 11.2524L35.3825 12.4781C33.4715 8.80919 30.2746 5.97394 26.4036 4.51502C22.5327 3.0561 18.2597 3.07601 14.4025 4.57093L13.4153 2.06664V2.06236Z" fill="#58D09E"/>
<path d="M22.6139 34.3709L21.9539 35.9566C21.8901 36.1102 21.7841 36.2426 21.648 36.3382C21.5119 36.4338 21.3514 36.4887 21.1853 36.4966C20.9625 36.5066 20.7367 36.5123 20.5096 36.5123C16.7289 36.506 13.0603 35.2274 10.0947 32.8824C7.12909 30.5374 5.039 27.2626 4.16103 23.5852L1.51532 24.1781C2.49529 28.4147 4.87608 32.1968 8.27246 34.9123C11.7412 37.6786 16.0443 39.1892 20.481 39.1981H20.521C20.781 39.1981 21.041 39.1981 21.2982 39.1823C21.9809 39.1535 22.6413 38.9309 23.2022 38.5406C23.763 38.1502 24.2012 37.6083 24.4653 36.9781L25.3225 34.9066L22.6082 34.3709H22.6139Z" fill="url(#paint1_linear_56_105)"/>
<defs>
<linearGradient id="paint0_linear_56_105" x1="38.7559" y1="15.1366" x2="32.856" y2="36.5693" gradientUnits="userSpaceOnUse">
<stop stop-color="#58D09E"/>
<stop offset="1"/>
</linearGradient>
<linearGradient id="paint1_linear_56_105" x1="4.11679" y1="25.0195" x2="21.5785" y2="38.7795" gradientUnits="userSpaceOnUse">
<stop stop-color="#58D09E"/>
<stop offset="1" stop-color="#D2D2D2"/>
</linearGradient>
</defs>
</svg>
