<svg width="40" height="41" viewBox="0 0 40 41" fill="none" xmlns="http://www.w3.org/2000/svg">
<path d="M8.15766 32.3424L1.31453 25.4992C0.502812 24.6672 0 23.4908 0 22.341C0 21.8086 0.3 20.9764 0.526406 20.5L6.84312 7.34314L8.15766 32.3424Z" fill="#01579B"/>
<path d="M31.5806 8.65766L24.7375 1.81453C24.1406 1.21453 22.8965 0.5 21.8437 0.5C20.9381 0.5 20.05 0.682344 19.4765 1.02641L6.84607 7.34313L31.5806 8.65766ZM16.3153 40.5H32.8951V33.3952L20.5264 29.4458L9.21044 33.3952L16.3153 40.5Z" fill="#40C4FF"/>
<path d="M6.84314 28.6576C6.84314 30.7691 7.10783 31.2867 8.15767 32.3423L9.21048 33.3951H32.8952L21.3175 20.2383L6.84314 7.34296V28.6578V28.6576Z" fill="#29B6F6"/>
<path d="M27.896 7.34015H6.84314L32.8952 33.3922H40V17.077L31.5777 8.65468C30.3955 7.46952 29.3456 7.34015 27.896 7.34015Z" fill="#01579B"/>
<path opacity="0.2" d="M8.42234 32.6041C7.36952 31.5484 7.1078 30.5073 7.1078 28.6576V7.60468L6.84609 7.34296V28.6575C6.84296 30.5072 6.84296 31.0189 8.42234 32.6039V32.6041Z" fill="white"/>
<path opacity="0.2" d="M39.7383 16.8153V33.1305H32.6334L32.8951 33.3952H40V17.077L39.7383 16.8153Z" fill="#263238"/>
<path opacity="0.2" d="M31.5806 8.65767C30.275 7.35189 29.2075 7.34314 27.6342 7.34314H6.84607L7.10779 7.60486H27.6342C28.4193 7.60486 30.4014 7.47251 31.5806 8.65767Z" fill="white"/>
<path opacity="0.2" d="M39.7383 16.8153L31.5806 8.6575L24.7375 1.81469C24.1406 1.21453 22.8966 0.5 21.8437 0.5C20.9381 0.5 20.05 0.682344 19.4766 1.02641L6.84609 7.34313L0.52937 20.5C0.302808 20.9794 0.00280762 21.8116 0.00280762 22.3409C0.00280762 23.4908 0.508745 24.6641 1.3175 25.4992L7.62234 31.7602C7.77234 31.9453 7.9489 32.1336 8.15765 32.3423L8.41937 32.6041L9.20749 33.3922L16.0506 40.2353L16.3123 40.497H32.8891V33.3923H39.9939V17.0769L39.7381 16.8152L39.7383 16.8153Z" fill="url(#paint0_radial_56_81)"/>
<defs>
<radialGradient id="paint0_radial_56_81" cx="0" cy="0" r="1" gradientUnits="userSpaceOnUse" gradientTransform="translate(19.9984 20.4963) scale(19.9971 19.9971)">
<stop stop-color="white" stop-opacity="0.1"/>
<stop offset="1" stop-color="white" stop-opacity="0"/>
</radialGradient>
</defs>
</svg>
