<svg width="37" height="41" viewBox="0 0 37 41" fill="none" xmlns="http://www.w3.org/2000/svg">
<path d="M33.945 20.1943C33.945 19.2069 33.5527 18.26 32.8546 17.5618C32.1564 16.8636 31.2095 16.4714 30.2221 16.4714C30.0914 16.4713 29.9607 16.478 29.8307 16.4914L34.945 1.40857H13.2121L18.3193 16.4786C18.245 16.4786 18.1693 16.4714 18.0935 16.4714C17.2045 16.4704 16.3445 16.7876 15.669 17.3655C14.9935 17.9435 14.5471 18.7441 14.4106 19.6226C14.2741 20.5011 14.4564 21.3994 14.9247 22.1551C15.3929 22.9108 16.1161 23.474 16.9635 23.7428C16.1716 25.1064 15.1856 26.3474 14.0364 27.4271C12.5405 28.8571 10.7633 29.9601 8.81784 30.6657C7.72785 30.1491 6.87538 29.237 6.43359 28.1146C5.9918 26.9922 5.99383 25.7438 6.43927 24.6228C6.54927 24.3657 6.6607 24.1057 6.76641 23.8457C7.59649 23.6502 8.33433 23.1758 8.85665 22.5017C9.37897 21.8276 9.65412 20.9946 9.63613 20.142C9.61814 19.2894 9.3081 18.4688 8.75781 17.8174C8.20753 17.1659 7.45033 16.723 6.61275 16.5627C5.77517 16.4024 4.90795 16.5344 4.15599 16.9366C3.40404 17.3389 2.8129 17.987 2.48137 18.7727C2.14983 19.5584 2.09797 20.4341 2.33447 21.2534C2.57096 22.0727 3.08147 22.7861 3.7807 23.2743C2.59236 25.429 1.68543 27.7273 1.08213 30.1128C0.576417 33.1628 1.08213 36.3985 3.71784 38.2285C9.8607 42.4871 16.5307 35.5885 23.5621 33.8557C26.1107 33.2271 28.9078 33.3285 31.1521 32.0285C31.9629 31.5668 32.6621 30.9321 33.2001 30.1697C33.7381 29.4073 34.1017 28.5358 34.265 27.6171C34.4143 26.7417 34.3862 25.8452 34.1822 24.9809C33.9783 24.1166 33.6027 23.302 33.0778 22.5857C33.6379 21.9164 33.9444 21.0713 33.9435 20.1986L33.945 20.1943ZM21.8178 20.2143V20.2014C21.8189 19.5607 21.6542 18.9307 21.3398 18.3725C21.0254 17.8143 20.572 17.3469 20.0235 17.0157L24.0864 8.78571L28.1578 17.0914C27.6471 17.4308 27.2283 17.8914 26.9389 18.4321C26.6495 18.9728 26.4984 19.5767 26.4993 20.19V20.2714L21.8178 20.2143Z" fill="#C63D14"/>
<path d="M34.8549 20.1943C34.8535 19.1148 34.4756 18.0697 33.7864 17.2389C33.0972 16.4081 32.1398 15.8436 31.0792 15.6428L36.2135 0.5H11.9449L17.0878 15.6728C16.19 15.8735 15.3723 16.3371 14.739 17.0045C14.1058 17.6719 13.6858 18.5128 13.5325 19.4199C13.3792 20.327 13.4996 21.2593 13.8784 22.0977C14.2572 22.936 14.8772 23.6426 15.6592 24.1271C15.0132 25.0869 14.2618 25.9715 13.4192 26.7643C12.1149 28.0122 10.5822 28.9968 8.90494 29.6643C8.11783 29.2074 7.52118 28.4827 7.2238 27.6226C6.92641 26.7624 6.94811 25.824 7.28494 24.9786L7.34208 24.8457L7.4478 24.5957C8.39992 24.2656 9.21854 23.6342 9.77971 22.7972C10.3409 21.9602 10.614 20.9631 10.5578 19.957C10.5015 18.9508 10.1189 17.9904 9.46794 17.2212C8.81697 16.4519 7.93307 15.9157 6.95009 15.6938C5.9671 15.4719 4.93858 15.5764 4.02027 15.9914C3.10196 16.4063 2.34389 17.1093 1.86084 17.9937C1.3778 18.8781 1.1961 19.8958 1.34325 20.8927C1.49041 21.8896 1.9584 22.8114 2.67637 23.5186C2.52209 23.8486 2.35923 24.1828 2.19209 24.5271C1.26585 26.2302 0.592134 28.0588 0.192089 29.9557C-0.472196 33.9557 0.599232 37.16 3.2078 38.9671C4.60815 39.9685 6.28768 40.5047 8.00923 40.5C11.0549 40.5 14.1364 38.97 17.1521 37.4728C19.2591 36.3269 21.4821 35.4084 23.7835 34.7328C24.6078 34.53 25.4564 34.4071 26.3549 34.2771C28.1856 34.1309 29.9707 33.6322 31.6121 32.8085C32.5377 32.2798 33.3358 31.554 33.9497 30.6825C34.5637 29.8111 34.9786 28.8153 35.1649 27.7657C35.4684 25.9825 35.1179 24.1496 34.1778 22.6043C34.6225 21.8786 34.8574 21.0439 34.8563 20.1928L34.8549 20.1943ZM33.0363 20.1943C33.0363 20.7509 32.8713 21.295 32.5621 21.7578C32.2528 22.2206 31.8133 22.5813 31.299 22.7943C30.7848 23.0073 30.2189 23.0631 29.673 22.9545C29.1271 22.8459 28.6257 22.5779 28.2321 22.1843C27.8385 21.7907 27.5704 21.2892 27.4619 20.7433C27.3533 20.1974 27.409 19.6315 27.622 19.1173C27.835 18.603 28.1957 18.1635 28.6585 17.8543C29.1213 17.545 29.6655 17.38 30.2221 17.38C30.9682 17.3807 31.6836 17.6775 32.2112 18.2051C32.7388 18.7327 33.0356 19.4481 33.0363 20.1943ZM33.6749 2.31857L29.1406 15.69C28.9465 15.737 28.7556 15.7966 28.5692 15.8686L24.0906 6.72571L19.5978 15.8143C19.4022 15.7465 19.2022 15.6921 18.9992 15.6514L14.4806 2.31857H33.6749ZM18.0935 17.38C18.6501 17.38 19.1942 17.545 19.657 17.8543C20.1198 18.1635 20.4806 18.603 20.6936 19.1173C20.9066 19.6315 20.9623 20.1974 20.8537 20.7433C20.7451 21.2892 20.4771 21.7907 20.0835 22.1843C19.6899 22.5779 19.1885 22.8459 18.6425 22.9545C18.0966 23.0631 17.5308 23.0073 17.0165 22.7943C16.5023 22.5813 16.0627 22.2206 15.7535 21.7578C15.4443 21.295 15.2792 20.7509 15.2792 20.1943C15.28 19.4481 15.5767 18.7327 16.1043 18.2051C16.632 17.6775 17.3473 17.3807 18.0935 17.38ZM5.91923 17.4071C6.47608 17.4074 7.02034 17.5729 7.48311 17.8826C7.94588 18.1923 8.30637 18.6324 8.51894 19.1471C8.73152 19.6618 8.78663 20.2279 8.6773 20.774C8.56797 21.32 8.29911 21.8213 7.90475 22.2144C7.5104 22.6076 7.00827 22.8749 6.46192 22.9826C5.91557 23.0903 5.34957 23.0334 4.83553 22.8193C4.3215 22.6051 3.88255 22.2433 3.57423 21.7796C3.26592 21.3159 3.1021 20.7711 3.10352 20.2143C3.10427 19.4681 3.40102 18.7527 3.92864 18.2251C4.45625 17.6975 5.17164 17.4007 5.9178 17.4L5.91923 17.4071ZM33.3721 27.4557C33.2309 28.2432 32.9182 28.99 32.4563 29.6432C31.9944 30.2964 31.3946 30.8401 30.6992 31.2357C29.2565 31.9362 27.6942 32.3574 26.0949 32.4771C25.1921 32.6071 24.2592 32.7414 23.3464 32.9671C20.9163 33.6708 18.5693 34.635 16.3464 35.8428C11.8264 38.0871 7.9178 40.0257 4.24351 37.4757C1.5478 35.6071 1.67209 32.15 1.98637 30.2557C2.35623 28.5318 2.97307 26.8704 3.8178 25.3228L4.20351 24.5243C4.58725 24.6777 4.98993 24.7786 5.40066 24.8243C5.03706 26.1085 5.13866 27.4799 5.68752 28.6965C6.23638 29.9132 7.19725 30.8969 8.40065 31.4743L8.75065 31.6543L9.12065 31.5228C11.1845 30.7779 13.07 29.6101 14.6564 28.0943C15.7042 27.1085 16.6247 25.9956 17.3964 24.7814C18.3837 24.9316 19.3931 24.7585 20.274 24.288C21.1549 23.8175 21.86 23.0747 22.2842 22.1706C22.7084 21.2665 22.8288 20.2495 22.6276 19.2713C22.4264 18.2931 21.9144 17.4062 21.1678 16.7428L24.0792 10.8557L27.0206 16.8557C26.1837 17.6623 25.6809 18.7542 25.6121 19.9144C25.5433 21.0747 25.9135 22.2184 26.6492 23.1182C27.3849 24.018 28.4322 24.6081 29.583 24.7712C30.7338 24.9343 31.9039 24.6585 32.8606 23.9986C33.3911 25.0693 33.5687 26.2806 33.3678 27.4586L33.3721 27.4557Z" fill="white"/>
</svg>
