<svg width="59" height="41" viewBox="0 0 59 41" fill="none" xmlns="http://www.w3.org/2000/svg">
<path d="M17.4788 26.9223L19.264 32.7148C19.6651 34.03 19.8324 34.948 19.7654 35.4713C20.7417 32.8564 21.4239 30.0067 21.8121 26.9223H23.9587C23.0357 31.9437 21.8183 35.5926 20.3071 37.8689C19.1298 39.623 17.84 40.5 16.4354 40.5C16.0609 40.5 15.5992 40.3869 15.0514 40.1622V38.9518C15.3191 38.9911 15.6331 39.012 15.9943 39.012C16.6495 39.012 17.1776 38.8304 17.5794 38.468C18.0605 38.0264 18.3013 37.5301 18.3013 36.9799C18.3013 36.6043 18.1135 35.8334 17.7396 34.6673L15.2522 26.9223H17.4788ZM3.81575 23.3621L7.0856 33.3387H7.10579L10.3957 23.3621H13.0836C13.6722 28.3098 14.0199 32.8367 14.1266 36.9401H11.8604C11.7806 33.1043 11.5598 29.4974 11.1986 26.1186H11.1789L7.72798 36.9401H6.00219L2.57218 26.1186H2.55198C2.29751 29.3635 2.13734 32.9704 2.07057 36.9401H0.00402832C0.137576 32.1122 0.471788 27.5866 1.00667 23.3621H3.81575Z" fill="#00758F"/>
<path d="M40.4467 23.1606C43.964 23.1606 45.7227 25.4078 45.7227 29.8998C45.7227 32.3409 45.1938 34.1847 44.137 35.4303C43.9466 35.658 43.736 35.8546 43.5144 36.0368L46.0035 37.2675L46.0011 37.2674L45.1173 38.7936L41.8758 36.9022C41.3385 37.0614 40.7473 37.1409 40.1031 37.1409C38.376 37.1409 37.086 36.6376 36.2331 35.6322C35.2969 34.52 34.829 32.769 34.829 30.3824C34.829 27.9551 35.357 26.1183 36.4141 24.871C37.3769 23.7301 38.7214 23.1606 40.4467 23.1606ZM29.6757 23.1804C30.9328 23.1804 32.0759 23.5167 33.1055 24.1871L32.5825 25.3525C31.7015 24.978 30.8329 24.7899 29.9763 24.7899C29.2813 24.7899 28.7457 24.9572 28.3723 25.2938C27.9969 25.6275 27.7647 26.0568 27.7647 26.5802C27.7647 27.3845 28.3377 28.0819 29.3956 28.6712C29.7422 28.8606 30.0876 29.0523 30.4318 29.2461L30.5107 29.2905L30.5503 29.3128L30.6293 29.3572L30.6688 29.3794L30.7477 29.4239C31.5486 29.8754 32.3021 30.3063 32.3021 30.3063C33.36 31.0572 33.8873 31.8578 33.8873 33.1765C33.8873 34.328 33.4653 35.2733 32.6241 36.013C31.7823 36.7493 30.6514 37.1185 29.2351 37.1185C27.9106 37.1185 26.6268 36.6935 25.3834 35.8507L25.9651 34.6844C27.0352 35.2207 28.0035 35.4886 28.873 35.4886C29.6885 35.4886 30.3269 35.3066 30.7887 34.947C31.2496 34.5848 31.5257 34.0796 31.5257 33.4391C31.5257 32.6328 30.9649 31.9437 29.9361 31.3655C29.6141 31.1876 29.2931 31.008 28.973 30.8266L28.8941 30.782C28.7494 30.7002 28.6035 30.6174 28.4607 30.5362L28.3832 30.4922C27.6885 30.0971 27.0879 29.7518 27.0879 29.7518C26.0595 28.9995 25.5438 28.1924 25.5438 26.8624C25.5438 25.7625 25.9283 24.8734 26.6963 24.1971C27.4662 23.5193 28.4594 23.1804 29.6757 23.1804ZM49.8564 23.3621V35.2698H54.1288V36.9401H47.6896V23.3621H49.8564ZM56.5028 35.275V35.5572H56.0331V36.9386H55.674V35.5572H55.186V35.275H56.5029H56.5028ZM57.3702 35.275L57.8212 36.409L58.2355 35.275H58.7445V36.9386H58.4061V35.6725L57.9345 36.9386H57.6905L57.2181 35.6725H57.2V36.9386H56.8798V35.275H57.3703H57.3702ZM40.2255 24.8304C38.1527 24.8304 37.1158 26.5411 37.1158 29.9601C37.1158 31.9185 37.3906 33.3387 37.9391 34.2238C38.4471 35.043 39.2428 35.4518 40.3262 35.4518C42.399 35.4518 43.4358 33.7278 43.4358 30.2815C43.4358 28.3505 43.161 26.9425 42.6132 26.0569C42.1046 25.2396 41.3092 24.8304 40.2256 24.8304H40.2255Z" fill="#F29111"/>
<path d="M34.7927 1.34133C35.4803 -0.348202 37.8845 0.931283 38.8175 1.52146C39.0461 1.66912 39.3084 1.98108 39.5705 2.09638C39.9796 2.11244 40.3882 2.14445 40.7979 2.16155C41.5664 2.34214 42.2862 2.48968 42.8918 2.83456C45.7059 4.49186 47.5378 6.18071 49.2238 8.97029C49.5841 9.56116 49.7641 10.2006 50.0584 10.84C50.4668 11.793 50.9258 12.7935 51.3998 13.6947C51.6121 14.122 51.7763 14.5971 52.071 14.9579C52.1861 15.1229 52.5129 15.1715 52.7083 15.2701C53.2485 15.5497 53.9029 15.7619 54.4109 16.0901C55.3597 16.6816 56.2769 17.3865 57.1108 18.1082C57.4216 18.3868 57.6334 18.7811 57.9295 19.0757V19.2244C57.6667 19.3051 57.4047 19.3877 57.1426 19.4539C56.57 19.601 56.0627 19.5677 55.5072 19.7149C55.1639 19.8145 54.7377 19.9458 54.3777 19.9792L54.4109 20.0127C54.6227 20.6179 55.7687 21.1101 56.2928 21.4721C56.9293 21.9315 57.5191 22.4886 57.9939 23.1285C58.1578 23.2918 58.3218 23.4403 58.4849 23.6031C58.599 23.7681 58.6311 23.9815 58.7465 24.1286V24.1784C58.6187 24.1333 58.5268 24.0473 58.4397 23.9573L58.3878 23.903C58.3358 23.8491 58.2834 23.7961 58.2236 23.7524C57.8624 23.5057 57.5038 23.2106 57.1426 22.9813C56.5217 22.5873 55.8015 22.3586 55.1639 21.9632C54.8034 21.7336 54.4598 21.4721 54.1162 21.2094C53.8047 20.9791 53.4617 20.5369 53.2659 20.2088C53.1506 20.0275 53.1348 19.8145 53.0031 19.6833C53.0266 19.4643 53.2273 19.3993 53.4298 19.3458L53.4763 19.3335C53.5462 19.3154 53.6146 19.2973 53.6743 19.2733C54.5249 18.9121 55.539 18.7811 56.8485 18.8139C56.7992 18.4851 55.9809 18.0754 55.7197 17.8785C55.1954 17.5006 54.6402 17.1062 54.084 16.7623C53.7892 16.5821 53.2813 16.4507 52.9548 16.3035C52.5129 16.1229 51.531 15.9424 51.2861 15.5984C50.8702 15.0562 50.5715 14.4095 50.2814 13.7562L50.2025 13.5779C50.1762 13.5185 50.1498 13.4591 50.1233 13.3997C49.7805 12.613 49.3546 11.7928 49.011 10.9873C48.8313 10.5943 48.7488 10.2494 48.5521 9.87254C47.3581 7.55978 45.5909 5.62346 43.4482 4.26171C42.7441 3.81862 41.959 3.40857 41.0923 3.12988C40.6012 2.98153 40.0117 3.06357 39.4884 2.94975H39.144C38.85 2.86692 38.6046 2.55531 38.3753 2.39101C37.8687 2.04705 37.3614 1.81609 36.7556 1.57068C36.5434 1.47224 35.9372 1.24301 35.7257 1.42348C35.5946 1.45641 35.5282 1.50586 35.496 1.63734C35.3656 1.83353 35.4803 2.12908 35.5614 2.31001C35.8071 2.83433 36.1504 3.14594 36.462 3.58904C36.7392 3.98199 37.0835 4.42509 37.28 4.85235C37.7041 5.77077 37.9015 6.78832 38.2945 7.70663C38.4402 8.05198 38.6707 8.44493 38.8828 8.75643C39.0626 9.00367 39.3895 9.18243 39.4884 9.49541C39.6855 9.82355 39.1933 10.9063 39.0794 11.2501C38.6532 12.5956 38.7358 14.4658 39.2266 15.6321L39.2527 15.6936L39.2789 15.7559C39.4581 16.183 39.6499 16.643 40.1264 16.7624C40.1592 16.7298 40.1264 16.7469 40.1915 16.7298C40.3068 15.8271 40.3392 14.9578 40.6504 14.2515C40.8302 13.8099 41.1892 13.4977 41.4353 13.1372C41.5993 13.2354 41.5993 13.5316 41.6971 13.7275C41.91 14.2358 42.1387 14.793 42.4012 15.3028C42.94 16.3526 43.5462 17.3704 44.2331 18.2887C44.4632 18.6167 44.7896 18.9777 45.084 19.2732C45.2151 19.3876 45.362 19.4536 45.4605 19.6008H45.4926V19.6504C45.0018 19.4695 44.6907 18.9617 44.2992 18.6652C43.5622 18.108 42.6795 17.2711 42.1715 16.4681C41.959 16.0071 41.7293 15.5653 41.5003 15.1066V15.0734C41.4025 15.2045 41.4353 15.3346 41.3863 15.5328C41.1738 16.3526 41.3374 17.2877 40.6012 17.5826C39.7666 17.9279 39.1441 17.0254 38.8828 16.6152C38.0481 15.2538 37.8194 12.9571 38.4081 11.1031C38.5389 10.6928 38.5567 10.2006 38.785 9.87288C38.7356 9.57664 38.5073 9.49564 38.3753 9.31414C38.1463 9.0039 37.9502 8.6425 37.7709 8.29796C37.4264 7.62495 37.1814 6.82079 36.9199 6.09902C36.8049 5.80427 36.772 5.50838 36.6574 5.22935C36.4619 4.80347 36.1015 4.37621 35.8235 3.99943C35.4471 3.4579 34.3507 2.40834 34.7927 1.34133ZM40.1589 4.55554C40.2026 4.59936 40.2554 4.63768 40.31 4.67543L40.3758 4.72063C40.4636 4.78144 40.5486 4.84546 40.6007 4.93266C40.6833 5.04808 40.6987 5.16201 40.7976 5.27766C40.7976 5.67199 40.6833 5.93415 40.4526 6.09753C40.4526 6.09753 40.4369 6.11474 40.4207 6.1308C40.2899 5.86795 40.1753 5.60648 40.0436 5.34386C39.8814 5.11462 39.652 4.93277 39.5198 4.67084H39.4881V4.63791C39.6855 4.58915 39.8814 4.55554 40.1589 4.55554Z" fill="#00758F"/>
</svg>
