<svg width="42" height="41" viewBox="0 0 42 41" fill="none" xmlns="http://www.w3.org/2000/svg">
<path d="M20.8552 0.0112915C10.6476 0.0112915 11.285 4.43791 11.285 4.43791L11.2963 9.02402H21.0372V10.4009H7.42735C7.42735 10.4009 0.895508 9.66011 0.895508 19.9595C0.895508 30.2592 6.59666 29.8939 6.59666 29.8939H9.99908V25.1145C9.99908 25.1145 9.81566 19.4133 15.6092 19.4133H25.2705C25.2705 19.4133 30.6985 19.501 30.6985 14.1673V5.34842C30.6985 5.34842 31.5229 0.0112915 20.8552 0.0112915ZM15.4841 3.09536C15.7142 3.09515 15.9422 3.14034 16.1549 3.22833C16.3676 3.31632 16.5609 3.44539 16.7236 3.60816C16.8864 3.77092 17.0155 3.96419 17.1035 4.17689C17.1915 4.38959 17.2367 4.61756 17.2364 4.84774C17.2367 5.07793 17.1915 5.30589 17.1035 5.5186C17.0155 5.7313 16.8864 5.92456 16.7236 6.08733C16.5609 6.25009 16.3676 6.37916 16.1549 6.46716C15.9422 6.55515 15.7142 6.60033 15.4841 6.60013C15.2539 6.60033 15.0259 6.55515 14.8132 6.46716C14.6005 6.37916 14.4072 6.25009 14.2445 6.08733C14.0817 5.92456 13.9526 5.7313 13.8646 5.5186C13.7767 5.30589 13.7315 5.07793 13.7317 4.84774C13.7315 4.61756 13.7767 4.38959 13.8646 4.17689C13.9526 3.96419 14.0817 3.77092 14.2445 3.60816C14.4072 3.44539 14.6005 3.31632 14.8132 3.22833C15.0259 3.14034 15.2539 3.09515 15.4841 3.09536Z" fill="url(#paint0_linear_56_75)"/>
<path d="M21.1451 40.0113C31.3526 40.0113 30.7153 35.5847 30.7153 35.5847L30.704 30.9987H20.9629V29.6218H34.5727C34.5727 29.6218 41.1046 30.3626 41.1046 20.0629C41.1046 9.76339 35.4034 10.1287 35.4034 10.1287H32.001V14.908C32.001 14.908 32.1844 20.6091 26.3909 20.6091H16.7296C16.7296 20.6091 11.3016 20.5214 11.3016 25.8552V34.6743C11.3016 34.6743 10.4774 40.0113 21.1449 40.0113H21.1451ZM26.5162 36.9275C26.286 36.9277 26.058 36.8826 25.8453 36.7946C25.6326 36.7066 25.4394 36.5775 25.2766 36.4147C25.1138 36.252 24.9848 36.0587 24.8968 35.846C24.8088 35.6333 24.7636 35.4053 24.7638 35.1751C24.7636 34.945 24.8088 34.717 24.8967 34.5042C24.9847 34.2915 25.1138 34.0982 25.2766 33.9355C25.4393 33.7727 25.6326 33.6436 25.8453 33.5556C26.058 33.4676 26.286 33.4224 26.5162 33.4226C26.7464 33.4224 26.9743 33.4676 27.187 33.5556C27.3997 33.6436 27.593 33.7726 27.7558 33.9354C27.9185 34.0982 28.0476 34.2914 28.1356 34.5041C28.2236 34.7168 28.2688 34.9448 28.2686 35.175C28.2688 35.4052 28.2236 35.6331 28.1356 35.8458C28.0476 36.0585 27.9185 36.2518 27.7558 36.4146C27.593 36.5773 27.3997 36.7064 27.187 36.7944C26.9743 36.8824 26.7464 36.9277 26.5162 36.9275Z" fill="url(#paint1_linear_56_75)"/>
<defs>
<linearGradient id="paint0_linear_56_75" x1="4.75959" y1="3.60905" x2="24.686" y2="23.3367" gradientUnits="userSpaceOnUse">
<stop stop-color="#387EB8"/>
<stop offset="1" stop-color="#366994"/>
</linearGradient>
<linearGradient id="paint1_linear_56_75" x1="16.9904" y1="16.2769" x2="38.3891" y2="36.5058" gradientUnits="userSpaceOnUse">
<stop stop-color="#FFE052"/>
<stop offset="1" stop-color="#FFC331"/>
</linearGradient>
</defs>
</svg>
