<svg width="45" height="41" viewBox="0 0 45 41" fill="none" xmlns="http://www.w3.org/2000/svg">
<path d="M36.9646 13.4648C36.4862 13.3007 36.0037 13.1486 35.5175 13.0087C35.5992 12.6751 35.6744 12.3454 35.7411 12.0216C36.8366 6.70368 36.1204 2.41948 33.6743 1.00891C31.3289 -0.343349 27.4932 1.06669 23.6194 4.43803C23.2376 4.77089 22.8643 5.11333 22.4998 5.46505C22.2559 5.23117 22.0075 5.00183 21.7551 4.77715C17.6951 1.17241 13.6257 -0.346862 11.1821 1.06774C8.83886 2.42422 8.145 6.45167 9.13127 11.4916C9.22939 11.9907 9.34018 12.4873 9.46354 12.9808C8.88751 13.1445 8.33168 13.3187 7.79973 13.5041C3.03977 15.1637 0 17.7645 0 20.4621C0 23.2483 3.26334 26.0429 8.22104 27.7375C8.62297 27.8743 9.02825 28.0011 9.43649 28.1177C9.3039 28.6492 9.18619 29.1844 9.0835 29.7225C8.14324 34.6749 8.8775 38.6072 11.2144 39.9551C13.6281 41.347 17.6793 39.9164 21.6239 36.4682C21.9437 36.1878 22.2565 35.8995 22.562 35.6036C22.9567 35.9844 23.362 36.3542 23.7773 36.7124C27.5984 40.0004 31.3721 41.328 33.7068 39.9765C36.1182 38.5805 36.9019 34.3562 35.8844 29.2167C35.8043 28.8141 35.7144 28.4134 35.6148 28.0151C35.8993 27.9308 36.1786 27.8441 36.4508 27.7538C41.6048 26.0463 44.9583 23.2856 44.9583 20.4621C44.9583 17.7546 41.8203 15.1363 36.9646 13.4648ZM35.8468 25.9309C35.601 26.0122 35.3488 26.0907 35.0917 26.1671C34.5227 24.3658 33.7549 22.4505 32.8151 20.4714C33.7118 18.5396 34.4501 16.6488 35.0032 14.8592C35.4631 14.9923 35.9094 15.1327 36.3396 15.2807C40.5 16.713 43.0377 18.8305 43.0377 20.4621C43.0377 22.2001 40.297 24.4562 35.8468 25.9309ZM34.0004 29.5897C34.4503 31.8622 34.5144 33.917 34.2164 35.5233C33.9488 36.9667 33.4103 37.929 32.7444 38.3144C31.3277 39.1346 28.2977 38.0686 25.03 35.2566C24.6437 34.9235 24.2667 34.5797 23.8995 34.2257C25.1664 32.8402 26.4325 31.2296 27.6681 29.4408C29.8416 29.248 31.8949 28.9326 33.757 28.5021C33.8467 28.8627 33.9278 29.2253 34.0004 29.5897ZM15.3273 38.1727C13.943 38.6615 12.8405 38.6755 12.174 38.2913C10.7559 37.4734 10.1664 34.316 10.9705 30.0807C11.0661 29.5803 11.1756 29.0826 11.2987 28.5882C13.1403 28.9956 15.1787 29.2885 17.3572 29.4652C18.6013 31.2156 19.9039 32.8244 21.2166 34.2332C20.9376 34.5032 20.652 34.7662 20.3601 35.0221C18.6157 36.5468 16.8678 37.6286 15.3273 38.1727ZM8.84238 25.9202C6.65013 25.1708 4.83969 24.197 3.59877 23.1343C2.48359 22.1795 1.92074 21.2313 1.92074 20.4621C1.92074 18.825 4.3613 16.7369 8.43196 15.3178C8.92597 15.1456 9.44299 14.9832 9.9795 14.8308C10.5422 16.6607 11.2801 18.5741 12.1707 20.5089C11.2685 22.4723 10.5201 24.4162 9.95193 26.2677C9.57929 26.161 9.20932 26.0451 8.84238 25.9202ZM11.0162 11.1226C10.1713 6.80466 10.7324 3.54747 12.1445 2.72997C13.6485 1.85925 16.9744 3.1007 20.4799 6.21336C20.7085 6.41679 20.9334 6.62435 21.1544 6.83592C19.8482 8.23858 18.5576 9.83548 17.3246 11.5755C15.2101 11.7715 13.1861 12.0862 11.3253 12.5079C11.2106 12.0488 11.1076 11.5868 11.0162 11.1226ZM30.4092 15.9113C29.9696 15.1521 29.5138 14.4025 29.042 13.6629C30.4764 13.8443 31.8508 14.0851 33.1414 14.3794C32.754 15.6214 32.2711 16.9197 31.7026 18.2509C31.2871 17.4625 30.8558 16.6825 30.4092 15.9113ZM22.5007 8.20855C23.3865 9.16831 24.2738 10.2398 25.1464 11.4023C23.3762 11.3187 21.603 11.3184 19.8327 11.4013C20.7063 10.2494 21.601 9.17937 22.5007 8.20855ZM14.5415 15.9245C14.1004 16.6895 13.6773 17.4646 13.2723 18.2493C12.7132 16.9229 12.2346 15.6186 11.8439 14.3591C13.1266 14.0721 14.4945 13.8375 15.9198 13.6594C15.4427 14.4035 14.9832 15.1588 14.5415 15.9245ZM15.9607 27.4015C14.4881 27.2371 13.0997 27.0146 11.8173 26.7354C12.2142 25.4534 12.7033 24.1213 13.2746 22.7664C13.6812 23.5517 14.1061 24.3274 14.5491 25.0927C15.0046 25.8794 15.4764 26.65 15.9607 27.4015ZM22.5538 32.851C21.6434 31.8689 20.7354 30.7823 19.8487 29.6138C20.7096 29.6475 21.5872 29.6647 22.4791 29.6647C23.3955 29.6647 24.3013 29.6442 25.193 29.6045C24.3175 30.7941 23.4336 31.8822 22.5538 32.851ZM31.7207 22.6972C32.3216 24.0671 32.8281 25.3921 33.2303 26.6522C31.9269 26.9497 30.5195 27.1892 29.0365 27.3671C29.5117 26.6138 29.9719 25.8511 30.4167 25.0795C30.869 24.2952 31.3038 23.5009 31.7207 22.6972ZM28.7531 24.1199C28.0721 25.3029 27.3528 26.4635 26.5963 27.5998C25.2261 27.6968 23.8528 27.745 22.4791 27.7443C21.08 27.7443 19.7191 27.7008 18.4086 27.6158C17.6325 26.4821 16.8994 25.3195 16.2111 24.1305C15.5261 22.9477 14.8864 21.7393 14.293 20.508C14.8849 19.2763 15.5228 18.0674 16.2055 16.8837L16.2053 16.8839C16.8878 15.6999 17.615 14.5423 18.3853 13.4135C19.7223 13.3124 21.0933 13.2597 22.479 13.2597C23.8709 13.2597 25.2439 13.3129 26.5805 13.4148C27.3431 14.5418 28.0656 15.6955 28.7468 16.8736C29.4317 18.0546 30.0781 19.2577 30.6849 20.4808C30.0844 21.7164 29.44 22.9302 28.7531 24.1199ZM32.715 2.67272C34.2204 3.54097 34.8059 7.04227 33.8601 11.6338C33.7997 11.9267 33.7319 12.2251 33.6581 12.5277C31.7927 12.0971 29.7673 11.7769 27.6467 11.578C26.4114 9.8188 25.1313 8.21944 23.8463 6.83487C24.1831 6.51024 24.5279 6.19403 24.8804 5.88653C28.1995 2.99814 31.3017 1.85767 32.715 2.67272ZM22.4791 16.4475C24.6963 16.4475 26.4938 18.245 26.4938 20.4621C26.4938 22.6793 24.6963 24.4768 22.4791 24.4768C20.2619 24.4768 18.4645 22.6793 18.4645 20.4621C18.4645 18.245 20.2619 16.4475 22.4791 16.4475Z" fill="#00D8FF"/>
</svg>
