<svg width="40" height="41" viewBox="0 0 40 41" fill="none" xmlns="http://www.w3.org/2000/svg">
<path d="M30.625 0.5H9.375C4.19733 0.5 0 4.69733 0 9.875V31.125C0 36.3027 4.19733 40.5 9.375 40.5H30.625C35.8027 40.5 40 36.3027 40 31.125V9.875C40 4.69733 35.8027 0.5 30.625 0.5Z" fill="#764ABC"/>
<path d="M26.028 26.3748C27.1813 26.2555 28.0561 25.2612 28.0163 24.0683C27.9766 22.8753 26.9824 21.9209 25.7894 21.9209H25.7099C24.477 21.9606 23.5227 22.9945 23.5624 24.2273C23.6022 24.8239 23.8408 25.3408 24.1986 25.6987C22.8466 28.3631 20.7788 30.3117 17.6769 31.9422C15.5692 33.0556 13.382 33.4533 11.1949 33.175C9.40533 32.9364 8.01361 32.1409 7.13861 30.8287C5.86611 28.8802 5.74689 26.7725 6.82048 24.6648C7.57611 23.1536 8.76908 22.0402 9.5247 21.4834C9.36564 20.9666 9.12704 20.0916 9.00767 19.4553C3.24158 23.6309 3.83798 29.2778 5.58767 31.9422C6.90017 33.9305 9.56439 35.1633 12.5072 35.1633C13.3025 35.1633 14.0978 35.0837 14.8931 34.8848C19.9835 33.8908 23.8408 30.8684 26.028 26.3748Z" fill="white"/>
<path d="M33.0269 21.4438C30.0047 17.9044 25.5508 15.9559 20.4607 15.9559H19.8244C19.4664 15.24 18.7108 14.7628 17.8758 14.7628H17.7963C16.5635 14.8027 15.6091 15.8366 15.6488 17.0694C15.6886 18.2623 16.6827 19.2167 17.8758 19.2167H17.9553C18.8302 19.177 19.5858 18.6203 19.9039 17.8647H20.6197C23.6419 17.8647 26.5052 18.7395 29.09 20.4495C31.0783 21.7619 32.51 23.4719 33.3053 25.5397C33.9814 27.2098 33.9416 28.8403 33.2258 30.2322C32.1124 32.3398 30.2433 33.4931 27.7777 33.4931C26.1871 33.4931 24.676 33.0159 23.8805 32.658C23.4432 33.0556 22.6478 33.6919 22.0911 34.0895C23.801 34.8848 25.5508 35.3223 27.221 35.3223C31.0386 35.3223 33.8621 33.2147 34.9358 31.107C36.0891 28.8006 36.0096 24.8239 33.0269 21.4438Z" fill="white"/>
<path d="M12.8253 27.0509C12.8651 28.2439 13.8592 29.1983 15.0523 29.1983H15.1318C16.3645 29.1584 17.319 28.1245 17.2792 26.8917C17.2395 25.6987 16.2453 24.7444 15.0523 24.7444H14.9726C14.8932 24.7444 14.7739 24.7444 14.6945 24.7842C13.0639 22.08 12.3879 19.1372 12.6265 15.9559C12.7856 13.57 13.5809 11.502 14.9728 9.79187C16.1259 8.32062 18.3529 7.60484 19.864 7.565C24.0793 7.48547 25.8689 12.7347 25.9881 14.8423C26.5051 14.9617 27.38 15.2402 27.9765 15.4389C27.4993 8.99688 23.5226 5.65625 19.705 5.65625C16.1259 5.65625 12.8253 8.24109 11.5129 12.0587C9.68371 17.1489 10.8767 22.0402 13.1036 25.8977C12.9048 26.1759 12.7854 26.6134 12.8253 27.0509Z" fill="white"/>
</svg>
