<svg width="27" height="41" viewBox="0 0 27 41" fill="none" xmlns="http://www.w3.org/2000/svg">
<path d="M6.83329 40.5C10.5133 40.5 13.5 37.5133 13.5 33.8333V27.1667H6.83329C3.15329 27.1667 0.166626 30.1533 0.166626 33.8333C0.166626 37.5133 3.15329 40.5 6.83329 40.5Z" fill="#0ACF83"/>
<path d="M0.166626 20.5C0.166626 16.82 3.15329 13.8333 6.83329 13.8333H13.5V27.1667H6.83329C3.15329 27.1667 0.166626 24.18 0.166626 20.5Z" fill="#A259FF"/>
<path d="M0.166626 7.16667C0.166626 3.48667 3.15329 0.5 6.83329 0.5H13.5V13.8333H6.83329C3.15329 13.8333 0.166626 10.8467 0.166626 7.16667Z" fill="#F24E1E"/>
<path d="M13.5 0.5H20.1667C23.8467 0.5 26.8333 3.48667 26.8333 7.16667C26.8333 10.8467 23.8467 13.8333 20.1667 13.8333H13.5V0.5Z" fill="#FF7262"/>
<path d="M26.8333 20.5C26.8333 24.18 23.8467 27.1667 20.1667 27.1667C16.4867 27.1667 13.5 24.18 13.5 20.5C13.5 16.82 16.4867 13.8333 20.1667 13.8333C23.8467 13.8333 26.8333 16.82 26.8333 20.5Z" fill="#1ABCFE"/>
</svg>
