<svg width="43" height="41" viewBox="0 0 43 41" fill="none" xmlns="http://www.w3.org/2000/svg">
<path d="M39.8254 27.7548C39.8254 27.7548 39.7634 27.3754 39.7273 27.3787L32.8431 28.0431C32.5786 28.068 32.3316 28.1861 32.1463 28.3764C31.9609 28.5666 31.8493 28.8167 31.8314 29.0817L31.6423 31.7924L26.3165 32.1723L25.9543 29.7158C25.8736 29.1693 25.3964 28.7574 24.8442 28.7574H17.5779C17.0258 28.7574 16.5486 29.1693 16.4679 29.7158L16.1056 32.1723L10.7797 31.7924L10.5907 29.0818C10.5729 28.8168 10.4613 28.5667 10.276 28.3764C10.0906 28.186 9.84364 28.0679 9.57914 28.043L2.6915 27.379C2.65588 27.3757 2.62986 27.7553 2.59424 27.7553L2.58496 29.2452L8.41814 30.1859L8.60919 32.9208C8.64779 33.4743 9.09466 33.922 9.64857 33.9618L16.9834 34.4851C17.0113 34.487 17.0386 34.4882 17.0661 34.4882C17.6172 34.4882 18.0937 34.076 18.1744 33.5295L18.547 31.0017H23.8754L24.2482 33.5295C24.3285 34.0758 24.8056 34.4879 25.3576 34.4879C25.3847 34.4879 25.4117 34.4869 25.438 34.4851L32.7738 33.9618C33.3278 33.922 33.7746 33.4743 33.8134 32.9208L34.0041 30.1859L39.8348 29.2409L39.8254 27.755V27.7548Z" fill="white"/>
<path d="M16.8974 0.5C14.9598 0.930799 13.0429 1.53044 11.2458 2.43495C11.2869 4.02161 11.3895 5.542 11.5974 7.08642C10.8995 7.53362 10.1662 7.91736 9.51437 8.44078C8.85193 8.95028 8.17558 9.43791 7.57577 10.0337C6.37782 9.2414 5.10978 8.49662 3.80346 7.83915C2.39525 9.35457 1.07833 10.9904 0.00299072 12.8207C0.81223 14.1296 1.65693 15.3566 2.56923 16.5211H2.59458V27.7547C2.61512 27.7547 2.63583 27.7556 2.65621 27.7576L9.54303 28.4214C9.71769 28.4383 9.88071 28.5165 10.0031 28.6423C10.1255 28.768 10.1993 28.9331 10.2114 29.1082L10.4238 32.1483L16.4312 32.5769L16.8449 29.7711C16.8709 29.5951 16.9594 29.4342 17.0941 29.318C17.2289 29.2017 17.4009 29.1378 17.5789 29.1378H24.8445C25.0224 29.1378 25.1944 29.2018 25.3291 29.318C25.4638 29.4343 25.5522 29.5951 25.5782 29.7711L25.9919 32.5769L31.9996 32.1483L32.2117 29.1082C32.2239 28.9331 32.2977 28.7681 32.4201 28.6423C32.5425 28.5166 32.7056 28.4383 32.8802 28.4214L39.7642 27.7576C39.7846 27.7558 39.8051 27.7548 39.8255 27.7547V26.8583L39.8285 26.8571V16.5211H39.8539C40.7662 15.3566 41.6105 14.1295 42.4201 12.8207C41.3448 10.9903 40.0275 9.35441 38.6195 7.83915C37.3135 8.49645 36.0449 9.24124 34.8468 10.0337C34.2474 9.43791 33.572 8.95012 32.9087 8.44062C32.2571 7.9172 31.5227 7.53345 30.826 7.08642C31.0334 5.54217 31.1362 4.02161 31.1774 2.43478C29.3803 1.53027 27.4636 0.930799 25.525 0.5C24.7509 1.80085 24.0431 3.20939 23.4267 4.58662C22.6957 4.46451 21.9613 4.41927 21.226 4.41033V4.4095C21.221 4.4095 21.216 4.41033 21.2117 4.41033C21.2071 4.41033 21.2023 4.4095 21.1976 4.4095V4.41033C20.461 4.41911 19.7271 4.46451 18.9959 4.58662C18.3799 3.20956 17.6725 1.80068 16.8974 0.5ZM2.58281 29.2404C2.58563 29.9058 2.59408 30.6349 2.59408 30.7802C2.59408 37.3204 10.8908 40.4639 21.1983 40.5H21.2238C31.5315 40.4639 39.8254 37.3204 39.8254 30.7802C39.8254 30.6324 39.8345 29.9063 39.8375 29.2404L33.6474 29.8374L33.434 32.8937C33.4215 33.0719 33.3451 33.2396 33.2189 33.366C33.0927 33.4924 32.9252 33.569 32.747 33.5817L25.4112 34.1051C25.2246 34.1184 25.0399 34.0606 24.8941 33.9435C24.7483 33.8263 24.6521 33.6584 24.6248 33.4733L24.2043 30.6206H18.2185L17.798 33.4733C17.7708 33.6585 17.6747 33.8265 17.5288 33.9437C17.383 34.0608 17.1982 34.1185 17.0116 34.1051L9.67575 33.5817C9.4976 33.569 9.33002 33.4924 9.20382 33.366C9.07762 33.2396 9.00127 33.0719 8.98879 32.8937L8.77571 29.8374L2.58281 29.2404Z" fill="#478CBF"/>
<path d="M11.4488 16.933C9.15758 16.933 7.29901 18.7896 7.29901 21.0811C7.29901 23.3743 9.15741 25.2317 11.4488 25.2317C13.7409 25.2317 15.599 23.3743 15.599 21.0811C15.599 18.7896 13.7409 16.933 11.4488 16.933ZM30.9739 16.933C28.6812 16.933 26.8233 18.7896 26.8233 21.0811C26.8233 23.3743 28.6812 25.2317 30.9739 25.2317C33.2649 25.2317 35.1231 23.3743 35.1231 21.0811C35.1231 18.7896 33.2649 16.933 30.9739 16.933ZM21.2105 19.3604C20.4725 19.3604 19.8745 19.9047 19.8745 20.5744V24.3953C19.8745 25.0655 20.4727 25.6091 21.2105 25.6091C21.9483 25.6091 22.5476 25.0655 22.5476 24.3951V20.5744C22.5476 19.9047 21.9483 19.3604 21.2105 19.3604Z" fill="white"/>
<path d="M11.8458 18.5732C10.3244 18.5732 9.09119 19.8071 9.09119 21.3281C9.09119 22.8492 10.3244 24.0818 11.8458 24.0818C13.368 24.0818 14.6008 22.849 14.6008 21.328C14.6008 19.8071 13.368 18.5732 11.8458 18.5732ZM30.5761 18.5732C29.0551 18.5732 27.8228 19.8071 27.8228 21.3281C27.8228 22.8492 29.0552 24.0818 30.5761 24.0818C32.0988 24.0818 33.3309 22.849 33.3309 21.328C33.3309 19.8071 32.0987 18.5732 30.5761 18.5732Z" fill="#414042"/>
</svg>
